<svg id="Layer_1" data-name="Layer 1" xmlns="http://www.w3.org/2000/svg" viewBox="0 0 1029.65 358.52">
    <g id="recem">
        <path
            d="M111.27,163.21h-8.48v12.17H100.3V146.19h9.48q4.68,0,7.3,2.26a8.65,8.65,0,0,1,1,11.28,8.48,8.48,0,0,1-4.42,3l7.3,12.43v.26h-2.62Zm-8.48-2.08h7.56a7,7,0,0,0,5-1.77,6.69,6.69,0,0,0-.08-9.38,8.14,8.14,0,0,0-5.52-1.71h-6.95Z"
            transform="translate(-27.57 -22.96)" />
        <path
            d="M134.27,175.78a9.38,9.38,0,0,1-5-1.36,9.27,9.27,0,0,1-3.48-3.8,11.83,11.83,0,0,1-1.25-5.46v-.87a12.75,12.75,0,0,1,1.22-5.63,9.59,9.59,0,0,1,3.38-3.94,8.28,8.28,0,0,1,4.69-1.44,7.82,7.82,0,0,1,6.26,2.7,10.92,10.92,0,0,1,2.32,7.37v1.34H126.93v.47a9,9,0,0,0,2.12,6.14,6.72,6.72,0,0,0,5.32,2.46,7.94,7.94,0,0,0,3.4-.7,7.67,7.67,0,0,0,2.68-2.25L142,172A8.75,8.75,0,0,1,134.27,175.78Zm-.44-20.45a6,6,0,0,0-4.56,2,9.15,9.15,0,0,0-2.26,5.33h13v-.26a7.92,7.92,0,0,0-1.78-5.09A5.53,5.53,0,0,0,133.83,155.33Z"
            transform="translate(-27.57 -22.96)" />
        <path
            d="M155.1,173.76a6.3,6.3,0,0,0,4.2-1.42,5,5,0,0,0,1.84-3.65h2.31a6.8,6.8,0,0,1-1.25,3.61,7.7,7.7,0,0,1-3,2.56,9.05,9.05,0,0,1-4.06.92,8.36,8.36,0,0,1-6.76-3,12,12,0,0,1-2.5-8v-.73a13.5,13.5,0,0,1,1.12-5.67,8.58,8.58,0,0,1,3.22-3.81,8.85,8.85,0,0,1,4.9-1.35,8.36,8.36,0,0,1,5.89,2.13,7.78,7.78,0,0,1,2.48,5.59h-2.31a6.24,6.24,0,0,0-11.1-3.32,10.56,10.56,0,0,0-1.79,6.57V165a10.35,10.35,0,0,0,1.79,6.47A6,6,0,0,0,155.1,173.76Z"
            transform="translate(-27.57 -22.96)" />
        <path
            d="M176.64,175.78a9.29,9.29,0,0,1-8.48-5.16,11.83,11.83,0,0,1-1.25-5.46v-.87a12.75,12.75,0,0,1,1.22-5.63,9.59,9.59,0,0,1,3.38-3.94,8.28,8.28,0,0,1,4.69-1.44,7.85,7.85,0,0,1,6.27,2.7,11,11,0,0,1,2.31,7.37v1.34H169.3v.47a9.08,9.08,0,0,0,2.12,6.14,6.72,6.72,0,0,0,5.32,2.46,7.94,7.94,0,0,0,3.4-.7,7.67,7.67,0,0,0,2.68-2.25l1.5,1.14A8.73,8.73,0,0,1,176.64,175.78Zm-.44-20.45a6,6,0,0,0-4.56,2,9.15,9.15,0,0,0-2.26,5.33h13v-.26a8,8,0,0,0-1.79-5.09A5.53,5.53,0,0,0,176.2,155.33Zm2.67-10.75h2.9l-4.63,5.62H175Z"
            transform="translate(-27.57 -22.96)" />
        <path
            d="M191.64,153.69l.08,3.53a7.94,7.94,0,0,1,3-2.95,8.19,8.19,0,0,1,4-1q5.13,0,6.51,4.22a8.25,8.25,0,0,1,3.11-3.12,8.62,8.62,0,0,1,4.29-1.1c4.66,0,7,2.55,7.12,7.62v14.48h-2.4V161.09a6.49,6.49,0,0,0-1.26-4.32,5.11,5.11,0,0,0-4-1.4,6.41,6.41,0,0,0-4.37,1.68,5.86,5.86,0,0,0-2,4v14.35h-2.41V160.9a6,6,0,0,0-1.31-4.16,5.26,5.26,0,0,0-4-1.37,6,6,0,0,0-3.89,1.29,7.6,7.6,0,0,0-2.41,3.84v14.88h-2.41V153.69Z"
            transform="translate(-27.57 -22.96)" />
        <path d="M233.31,163.51H223.7v-2h9.61Z" transform="translate(-27.57 -22.96)" />
        <path
            d="M245.62,173.76a6.3,6.3,0,0,0,4.2-1.42,5,5,0,0,0,1.84-3.65H254a6.7,6.7,0,0,1-1.24,3.61,7.77,7.77,0,0,1-3,2.56,9.08,9.08,0,0,1-4.06.92,8.38,8.38,0,0,1-6.77-3,12,12,0,0,1-2.49-8v-.73a13.5,13.5,0,0,1,1.12-5.67,8.58,8.58,0,0,1,3.22-3.81,8.83,8.83,0,0,1,4.9-1.35,8.38,8.38,0,0,1,5.89,2.13A7.73,7.73,0,0,1,254,161h-2.3a6.24,6.24,0,0,0-11.1-3.32,10.56,10.56,0,0,0-1.8,6.57V165a10.35,10.35,0,0,0,1.8,6.47A6,6,0,0,0,245.62,173.76Z"
            transform="translate(-27.57 -22.96)" />
        <path
            d="M261.14,157.36a8.48,8.48,0,0,1,3-3,7.92,7.92,0,0,1,4-1.07,6.49,6.49,0,0,1,5.19,2c1.14,1.31,1.71,3.28,1.73,5.9v14.23h-2.39V161.13a6.63,6.63,0,0,0-1.23-4.34,4.86,4.86,0,0,0-3.88-1.42,6.1,6.1,0,0,0-3.94,1.39,8.25,8.25,0,0,0-2.54,3.76v14.86h-2.38v-30.8h2.38Z"
            transform="translate(-27.57 -22.96)" />
        <path
            d="M289.7,175.78a9.29,9.29,0,0,1-8.49-5.16,11.83,11.83,0,0,1-1.24-5.46v-.87a12.88,12.88,0,0,1,1.21-5.63,9.66,9.66,0,0,1,3.38-3.94,8.33,8.33,0,0,1,4.69-1.44,7.82,7.82,0,0,1,6.27,2.7,10.92,10.92,0,0,1,2.32,7.37v1.34H282.36v.47a9.07,9.07,0,0,0,2.11,6.14,6.74,6.74,0,0,0,5.33,2.46,8,8,0,0,0,3.4-.7,7.55,7.55,0,0,0,2.67-2.25l1.51,1.14A8.75,8.75,0,0,1,289.7,175.78Zm-.45-20.45a6,6,0,0,0-4.56,2,9.15,9.15,0,0,0-2.25,5.33h13v-.26a8,8,0,0,0-1.78-5.09A5.56,5.56,0,0,0,289.25,155.33Z"
            transform="translate(-27.57 -22.96)" />
        <path
            d="M301.55,164.33a13.1,13.1,0,0,1,2.25-8.07,7.31,7.31,0,0,1,6.13-3,7.56,7.56,0,0,1,6.74,3.53l.12-3.12H319v21.25a9.2,9.2,0,0,1-2.34,6.64,8.42,8.42,0,0,1-6.36,2.45,9.59,9.59,0,0,1-4.32-1,8.38,8.38,0,0,1-3.24-2.69l1.34-1.45a7.6,7.6,0,0,0,6.06,3.13,6.15,6.15,0,0,0,4.69-1.77,7.07,7.07,0,0,0,1.75-4.93v-2.72a7.78,7.78,0,0,1-6.72,3.2,7.26,7.26,0,0,1-6.06-3,13.17,13.17,0,0,1-2.28-8.13Zm2.42.42a11.32,11.32,0,0,0,1.67,6.55,5.38,5.38,0,0,0,4.69,2.4,6.42,6.42,0,0,0,6.28-4V159.64a6.83,6.83,0,0,0-2.43-3.18,6.55,6.55,0,0,0-3.81-1.09,5.43,5.43,0,0,0-4.71,2.38C304.54,159.33,304,161.67,304,164.75Z"
            transform="translate(-27.57 -22.96)" />
        <path
            d="M339,175.38a11.41,11.41,0,0,1-.47-3,8.35,8.35,0,0,1-3.21,2.53,9.82,9.82,0,0,1-4.14.89A7.29,7.29,0,0,1,326.1,174a5.67,5.67,0,0,1-1.93-4.41,5.83,5.83,0,0,1,2.63-5,12.68,12.68,0,0,1,7.35-1.84h4.35V160.3a4.74,4.74,0,0,0-1.43-3.66,5.93,5.93,0,0,0-4.18-1.33,6.58,6.58,0,0,0-4.15,1.28,3.82,3.82,0,0,0-1.65,3.09l-2.4,0a5.58,5.58,0,0,1,2.4-4.48,9.31,9.31,0,0,1,5.92-1.9,8.43,8.43,0,0,1,5.72,1.82,6.51,6.51,0,0,1,2.16,5.06v10.27a12.74,12.74,0,0,0,.66,4.71v.24Zm-7.54-1.72a8.12,8.12,0,0,0,4.3-1.16,6.88,6.88,0,0,0,2.75-3.11v-4.78h-4.29a10.76,10.76,0,0,0-5.61,1.32,3.94,3.94,0,0,0-2,3.5,3.89,3.89,0,0,0,1.36,3A5.09,5.09,0,0,0,331.45,173.66Z"
            transform="translate(-27.57 -22.96)" />
        <path
            d="M346.32,164.33a13.1,13.1,0,0,1,2.26-8.05,7.26,7.26,0,0,1,6.13-3,7.54,7.54,0,0,1,6.69,3.47V144.58h2.39v30.8h-2.24l-.11-2.88a7.73,7.73,0,0,1-6.77,3.28,7.24,7.24,0,0,1-6.05-3,13.18,13.18,0,0,1-2.3-8.16Zm2.43.42a11.32,11.32,0,0,0,1.67,6.55,5.36,5.36,0,0,0,4.69,2.4,6.45,6.45,0,0,0,6.29-3.91V159.6a6.4,6.4,0,0,0-6.25-4.23,5.43,5.43,0,0,0-4.71,2.38C349.31,159.33,348.75,161.67,348.75,164.75Z"
            transform="translate(-27.57 -22.96)" />
        <path
            d="M368.78,164.21a12.75,12.75,0,0,1,1.22-5.63,9.14,9.14,0,0,1,8.45-5.3,8.94,8.94,0,0,1,7,3,11.72,11.72,0,0,1,2.68,8.05v.51a12.87,12.87,0,0,1-1.21,5.66,9.06,9.06,0,0,1-3.42,3.88,9.36,9.36,0,0,1-5,1.36,8.94,8.94,0,0,1-7-3,11.69,11.69,0,0,1-2.7-8.06Zm2.41.67a9.79,9.79,0,0,0,2,6.38,6.8,6.8,0,0,0,10.54,0,10.13,10.13,0,0,0,2-6.59v-.46a11.14,11.14,0,0,0-.92-4.55,7.47,7.47,0,0,0-2.59-3.2,6.65,6.65,0,0,0-3.81-1.13,6.4,6.4,0,0,0-5.23,2.52,10.1,10.1,0,0,0-2,6.58Z"
            transform="translate(-27.57 -22.96)" />
        <path
            d="M406.1,169.87a3.43,3.43,0,0,0-1.43-2.87,11,11,0,0,0-4.32-1.69,19.6,19.6,0,0,1-4.49-1.41A5.88,5.88,0,0,1,393.5,162a4.8,4.8,0,0,1-.77-2.77,5.16,5.16,0,0,1,2.14-4.24,8.65,8.65,0,0,1,5.5-1.68,8.88,8.88,0,0,1,5.82,1.8,5.75,5.75,0,0,1,2.2,4.68H406a3.9,3.9,0,0,0-1.59-3.17,7.21,7.21,0,0,0-7.82-.21,3.26,3.26,0,0,0-1.44,2.74,3,3,0,0,0,1.2,2.52,12.55,12.55,0,0,0,4.35,1.63,20.34,20.34,0,0,1,4.73,1.59,6.12,6.12,0,0,1,2.34,2,5.27,5.27,0,0,1,.76,2.87,5.2,5.2,0,0,1-2.22,4.39,9.43,9.43,0,0,1-5.78,1.64,9.74,9.74,0,0,1-6.15-1.83,5.65,5.65,0,0,1-2.36-4.64h2.41a4.19,4.19,0,0,0,1.78,3.28,7.23,7.23,0,0,0,4.32,1.17,6.86,6.86,0,0,0,4.05-1.1A3.32,3.32,0,0,0,406.1,169.87Z"
            transform="translate(-27.57 -22.96)" />
    </g>
    <g id="palestras">
        <path
            d="M34,63.32V82.4H27.57V33.67h18q8,0,12.54,4.08a13.85,13.85,0,0,1,4.53,10.81q0,7.09-4.43,10.93T45.47,63.32Zm0-5.25H45.54q5.16,0,7.9-2.43c1.83-1.62,2.74-4,2.74-7a9.17,9.17,0,0,0-2.74-7,10.8,10.8,0,0,0-7.53-2.72H34Z"
            transform="translate(-27.57 -22.96)" />
        <path
            d="M91.83,82.4A12.81,12.81,0,0,1,91,78.58a13.82,13.82,0,0,1-10.31,4.49,12.75,12.75,0,0,1-8.78-3,9.8,9.8,0,0,1-3.44-7.68,10.25,10.25,0,0,1,4.31-8.79q4.29-3.12,12.1-3.13h6V57.6a7,7,0,0,0-1.94-5.17A7.78,7.78,0,0,0,83.2,50.5a9,9,0,0,0-5.56,1.68,4.9,4.9,0,0,0-2.24,4H69.17A8.5,8.5,0,0,1,71.1,51a13,13,0,0,1,5.22-4,17.55,17.55,0,0,1,7.24-1.47c4.18,0,7.44,1,9.81,3.12a11.28,11.28,0,0,1,3.68,8.62V73.93a20.49,20.49,0,0,0,1.27,7.93v.54ZM81.56,77.68a10.82,10.82,0,0,0,5.52-1.51,9.1,9.1,0,0,0,3.78-3.91V64.83H86q-11.39,0-11.38,6.66A5.61,5.61,0,0,0,76.57,76,7.46,7.46,0,0,0,81.56,77.68Z"
            transform="translate(-27.57 -22.96)" />
        <path d="M113.49,82.4h-6.2V31h6.2Z" transform="translate(-27.57 -22.96)" />
        <path
            d="M138.42,83.07a15.8,15.8,0,0,1-12-4.84q-4.62-4.83-4.62-12.93V64.16a21.75,21.75,0,0,1,2.06-9.62,16,16,0,0,1,5.76-6.63,14.4,14.4,0,0,1,8-2.39q7.07,0,11,4.65t3.92,13.32v2.58H128a12.91,12.91,0,0,0,3.13,8.65,9.85,9.85,0,0,0,7.62,3.3,10.79,10.79,0,0,0,5.55-1.34,14.14,14.14,0,0,0,4-3.55l3.78,2.94Q147.52,83.07,138.42,83.07Zm-.77-32.47a8.26,8.26,0,0,0-6.29,2.73A13.3,13.3,0,0,0,128.21,61h18.15v-.47a11.77,11.77,0,0,0-2.55-7.31A7.78,7.78,0,0,0,137.65,50.6Z"
            transform="translate(-27.57 -22.96)" />
        <path
            d="M180.8,72.79a4.55,4.55,0,0,0-1.9-3.9,18.27,18.27,0,0,0-6.59-2.39,31.1,31.1,0,0,1-7.46-2.41,10.69,10.69,0,0,1-4.09-3.35,8,8,0,0,1-1.32-4.61,9.42,9.42,0,0,1,3.77-7.54,14.7,14.7,0,0,1,9.62-3.07,15.16,15.16,0,0,1,10,3.17,10.11,10.11,0,0,1,3.83,8.14h-6.22a5.6,5.6,0,0,0-2.16-4.39,8.12,8.12,0,0,0-5.44-1.84,8.42,8.42,0,0,0-5.29,1.48,4.63,4.63,0,0,0-1.91,3.84,3.76,3.76,0,0,0,1.78,3.39,22,22,0,0,0,6.41,2.17A33.26,33.26,0,0,1,181.33,64a11,11,0,0,1,4.27,3.46A8.58,8.58,0,0,1,187,72.36a9.29,9.29,0,0,1-3.88,7.78A16.32,16.32,0,0,1,173,83.07a18.19,18.19,0,0,1-7.7-1.54,12.56,12.56,0,0,1-5.24-4.3,10.37,10.37,0,0,1-1.89-6h6.2a6.39,6.39,0,0,0,2.49,4.94A9.65,9.65,0,0,0,173,78a10,10,0,0,0,5.64-1.43A4.37,4.37,0,0,0,180.8,72.79Z"
            transform="translate(-27.57 -22.96)" />
        <path
            d="M203.46,37.42v8.76h6.76V51h-6.76V73.46a5.06,5.06,0,0,0,.9,3.27,3.82,3.82,0,0,0,3.08,1.08,14.79,14.79,0,0,0,2.94-.4v5a17.79,17.79,0,0,1-4.75.67,7.73,7.73,0,0,1-6.26-2.51c-1.4-1.67-2.11-4-2.11-7.13V51h-6.59V46.18h6.59V37.42Z"
            transform="translate(-27.57 -22.96)" />
        <path
            d="M235,51.74a19.26,19.26,0,0,0-3-.23q-6.1,0-8.27,5.18V82.4h-6.19V46.18h6l.1,4.19a9.63,9.63,0,0,1,8.64-4.85A6.36,6.36,0,0,1,235,46Z"
            transform="translate(-27.57 -22.96)" />
        <path
            d="M261.66,82.4a12.81,12.81,0,0,1-.87-3.82,13.82,13.82,0,0,1-10.31,4.49,12.75,12.75,0,0,1-8.78-3,9.79,9.79,0,0,1-3.43-7.68,10.24,10.24,0,0,1,4.3-8.79q4.29-3.12,12.1-3.13h6V57.6a7,7,0,0,0-1.94-5.17A7.76,7.76,0,0,0,253,50.5a9,9,0,0,0-5.56,1.68,4.9,4.9,0,0,0-2.24,4H239A8.5,8.5,0,0,1,240.93,51a13,13,0,0,1,5.22-4,17.58,17.58,0,0,1,7.24-1.47q6.27,0,9.81,3.12a11.28,11.28,0,0,1,3.68,8.62V73.93a20.49,20.49,0,0,0,1.27,7.93v.54Zm-10.27-4.72a10.82,10.82,0,0,0,5.52-1.51,9.1,9.1,0,0,0,3.78-3.91V64.83h-4.85q-11.39,0-11.38,6.66A5.61,5.61,0,0,0,246.4,76,7.48,7.48,0,0,0,251.39,77.68Z"
            transform="translate(-27.57 -22.96)" />
        <path
            d="M297.68,72.79a4.57,4.57,0,0,0-1.89-3.9,18.41,18.41,0,0,0-6.6-2.39,31.1,31.1,0,0,1-7.46-2.41,10.69,10.69,0,0,1-4.09-3.35,8,8,0,0,1-1.32-4.61,9.42,9.42,0,0,1,3.77-7.54,14.72,14.72,0,0,1,9.62-3.07,15.16,15.16,0,0,1,10,3.17,10.11,10.11,0,0,1,3.83,8.14h-6.22a5.6,5.6,0,0,0-2.16-4.39,8.12,8.12,0,0,0-5.44-1.84,8.42,8.42,0,0,0-5.29,1.48,4.63,4.63,0,0,0-1.91,3.84,3.78,3.78,0,0,0,1.78,3.39,22,22,0,0,0,6.41,2.17A33.26,33.26,0,0,1,298.21,64a11,11,0,0,1,4.27,3.46,8.5,8.5,0,0,1,1.39,4.94A9.29,9.29,0,0,1,300,80.14a16.32,16.32,0,0,1-10.08,2.93,18.19,18.19,0,0,1-7.7-1.54,12.56,12.56,0,0,1-5.24-4.3,10.37,10.37,0,0,1-1.89-6h6.2a6.39,6.39,0,0,0,2.49,4.94A9.65,9.65,0,0,0,289.91,78a10,10,0,0,0,5.64-1.43A4.37,4.37,0,0,0,297.68,72.79Z"
            transform="translate(-27.57 -22.96)" />
    </g>
    <g id="vulneravel">
        <path
            d="M97.61,125.13V95.56h10.62c3.81,0,6.7.69,8.69,2.09a7,7,0,0,1,3,6.07,7.06,7.06,0,0,1-1,3.92,6.12,6.12,0,0,1-3.11,2.4,6.24,6.24,0,0,1,3.55,2.28,6.58,6.58,0,0,1,1.24,4.06c0,2.9-.91,5.07-2.75,6.53s-4.55,2.2-8.16,2.22Zm7.13-17.24h3.72a5.32,5.32,0,0,0,3.33-.86,3,3,0,0,0,1-2.46,3.21,3.21,0,0,0-1.07-2.7,5.78,5.78,0,0,0-3.48-.83h-3.49Zm0,4.67v7.09h4.67a4.5,4.5,0,0,0,3-.88,3.1,3.1,0,0,0,1-2.49q0-3.7-3.67-3.72Z"
            transform="translate(-27.57 -22.96)" />
        <path
            d="M137.43,109.35l-2.26-.16c-2.15,0-3.53.67-4.14,2v13.91h-6.85v-22h6.42l.22,2.83c1.15-2.16,2.76-3.23,4.82-3.23a6.78,6.78,0,0,1,1.91.24Z"
            transform="translate(-27.57 -22.96)" />
        <path
            d="M151.67,125.13a7.37,7.37,0,0,1-.65-2,6.36,6.36,0,0,1-5.29,2.38,7.81,7.81,0,0,1-5.28-1.88,6,6,0,0,1-2.17-4.72,6.15,6.15,0,0,1,2.64-5.41q2.64-1.82,7.68-1.82h2.11v-1.17c0-2-.87-3-2.62-3a2.14,2.14,0,0,0-2.44,2.41h-6.84a6.12,6.12,0,0,1,2.71-5.17,11.37,11.37,0,0,1,6.92-2,10,10,0,0,1,6.64,2,7.15,7.15,0,0,1,2.5,5.63v9.73a10.07,10.07,0,0,0,.93,4.63v.34Zm-4.29-4.46a3.86,3.86,0,0,0,2.12-.55,3.47,3.47,0,0,0,1.21-1.24v-3.52h-2q-3.57,0-3.57,3.21a2,2,0,0,0,.62,1.52A2.32,2.32,0,0,0,147.38,120.67Z"
            transform="translate(-27.57 -22.96)" />
        <path
            d="M172.88,119a1.58,1.58,0,0,0-.92-1.4,13.64,13.64,0,0,0-3.47-1.1,16.08,16.08,0,0,1-4.23-1.49,7.11,7.11,0,0,1-2.54-2.25,5.38,5.38,0,0,1-.87-3,6.05,6.05,0,0,1,2.5-5,10.25,10.25,0,0,1,6.54-2,11.36,11.36,0,0,1,7,2,6.16,6.16,0,0,1,2.64,5.18h-6.87c0-1.76-.93-2.64-2.78-2.64a2.76,2.76,0,0,0-1.81.6,1.84,1.84,0,0,0-.73,1.49,1.71,1.71,0,0,0,.89,1.48,8.6,8.6,0,0,0,2.86.94,24.22,24.22,0,0,1,3.44.87q5,1.71,5,6.12a5.75,5.75,0,0,1-2.67,4.89,11.74,11.74,0,0,1-6.92,1.89,11.94,11.94,0,0,1-5-1,8.25,8.25,0,0,1-3.45-2.76,6.21,6.21,0,0,1-1.24-3.67h6.4a2.63,2.63,0,0,0,1,2.22,4.17,4.17,0,0,0,2.5.7,3.25,3.25,0,0,0,2.1-.57A1.81,1.81,0,0,0,172.88,119Z"
            transform="translate(-27.57 -22.96)" />
        <path
            d="M182.63,97.49a3.06,3.06,0,0,1,1.05-2.4,4.48,4.48,0,0,1,5.49,0,3.26,3.26,0,0,1,0,4.79,4.48,4.48,0,0,1-5.49,0A3.05,3.05,0,0,1,182.63,97.49Zm7.27,27.64H183v-22h6.87Z"
            transform="translate(-27.57 -22.96)" />
        <path d="M201.34,125.13h-6.87V93.93h6.87Z" transform="translate(-27.57 -22.96)" />
        <path
            d="M216.19,125.54a11.28,11.28,0,0,1-8.19-3,10.39,10.39,0,0,1-3.13-7.85v-.57a13.55,13.55,0,0,1,1.25-5.95,9.11,9.11,0,0,1,3.65-4,11,11,0,0,1,5.69-1.41,9.54,9.54,0,0,1,7.31,2.87q2.68,2.88,2.68,8v2.66H211.84a4.92,4.92,0,0,0,1.6,2.9,4.76,4.76,0,0,0,3.21,1.06,6.15,6.15,0,0,0,5.08-2.28l3.13,3.7a8.65,8.65,0,0,1-3.62,2.81A12.25,12.25,0,0,1,216.19,125.54ZM215.42,108q-3,0-3.58,4h6.91v-.53a3.41,3.41,0,0,0-.84-2.55A3.3,3.3,0,0,0,215.42,108Z"
            transform="translate(-27.57 -22.96)" />
        <path
            d="M228.15,97.49a3,3,0,0,1,1.06-2.4,4.46,4.46,0,0,1,5.48,0,3.24,3.24,0,0,1,0,4.79,4.46,4.46,0,0,1-5.48,0A3,3,0,0,1,228.15,97.49Zm7.28,27.64h-6.87v-22h6.87Z"
            transform="translate(-27.57 -22.96)" />
        <path
            d="M252.94,109.35l-2.26-.16c-2.15,0-3.53.67-4.14,2v13.91h-6.85v-22h6.42l.23,2.83c1.15-2.16,2.75-3.23,4.81-3.23a6.78,6.78,0,0,1,1.91.24Z"
            transform="translate(-27.57 -22.96)" />
        <path
            d="M253.81,113.94a13,13,0,0,1,1.28-5.86,9.14,9.14,0,0,1,3.68-4,11.08,11.08,0,0,1,5.63-1.38,10.14,10.14,0,0,1,7.78,3,11.78,11.78,0,0,1,2.84,8.32v.25a11.39,11.39,0,0,1-2.85,8.15,10.12,10.12,0,0,1-7.73,3,10.27,10.27,0,0,1-7.54-2.81,11,11,0,0,1-3.07-7.63Zm6.85.43a8.25,8.25,0,0,0,.95,4.47,3.21,3.21,0,0,0,2.83,1.42c2.43,0,3.68-1.88,3.73-5.63v-.69q0-5.91-3.77-5.91-3.43,0-3.72,5.1Z"
            transform="translate(-27.57 -22.96)" />
        <path
            d="M289.55,119a1.58,1.58,0,0,0-.92-1.4,13.64,13.64,0,0,0-3.47-1.1,16.08,16.08,0,0,1-4.23-1.49,7.11,7.11,0,0,1-2.54-2.25,5.38,5.38,0,0,1-.87-3,6.05,6.05,0,0,1,2.5-5,10.25,10.25,0,0,1,6.54-2,11.36,11.36,0,0,1,7,2,6.16,6.16,0,0,1,2.64,5.18h-6.87c0-1.76-.93-2.64-2.78-2.64a2.76,2.76,0,0,0-1.81.6,1.84,1.84,0,0,0-.73,1.49,1.71,1.71,0,0,0,.89,1.48,8.6,8.6,0,0,0,2.86.94,24.22,24.22,0,0,1,3.44.87q5,1.71,5,6.12a5.75,5.75,0,0,1-2.67,4.89,11.74,11.74,0,0,1-6.92,1.89,11.94,11.94,0,0,1-5-1,8.25,8.25,0,0,1-3.45-2.76,6.21,6.21,0,0,1-1.24-3.67h6.4a2.63,2.63,0,0,0,1,2.22,4.17,4.17,0,0,0,2.5.7,3.25,3.25,0,0,0,2.1-.57A1.81,1.81,0,0,0,289.55,119Z"
            transform="translate(-27.57 -22.96)" />
        <path
            d="M320.34,125.54a11.24,11.24,0,0,1-8.18-3,10.39,10.39,0,0,1-3.13-7.85v-.57a13.42,13.42,0,0,1,1.25-5.95,9.15,9.15,0,0,1,3.64-4,11,11,0,0,1,5.69-1.41,9.51,9.51,0,0,1,7.31,2.87q2.68,2.88,2.69,8v2.66H316a4.87,4.87,0,0,0,1.6,2.9,4.76,4.76,0,0,0,3.21,1.06,6.15,6.15,0,0,0,5.08-2.28l3.13,3.7a8.68,8.68,0,0,1-3.63,2.81A12.21,12.21,0,0,1,320.34,125.54ZM319.57,108c-2,0-3.2,1.33-3.57,4h6.9v-.53a3.41,3.41,0,0,0-.83-2.55A3.33,3.33,0,0,0,319.57,108Z"
            transform="translate(-27.57 -22.96)" />
        <path
            d="M338.83,103.15l.22,2.58a7.56,7.56,0,0,1,6.28-3c2.78,0,4.65,1.1,5.63,3.31a7.31,7.31,0,0,1,6.46-3.31q6.68,0,6.86,8.08v14.3h-6.86V111.26a4.21,4.21,0,0,0-.57-2.46,2.43,2.43,0,0,0-2.07-.77,3.23,3.23,0,0,0-3,1.81l0,.28v15H344.9V111.3a4.48,4.48,0,0,0-.54-2.5,2.45,2.45,0,0,0-2.1-.77,3.27,3.27,0,0,0-3,1.81v15.29h-6.85v-22Z"
            transform="translate(-27.57 -22.96)" />
        <path
            d="M390.06,119a1.57,1.57,0,0,0-.91-1.4,13.64,13.64,0,0,0-3.47-1.1,16.08,16.08,0,0,1-4.23-1.49,7.11,7.11,0,0,1-2.54-2.25,5.38,5.38,0,0,1-.87-3,6.05,6.05,0,0,1,2.5-5,10.25,10.25,0,0,1,6.54-2,11.36,11.36,0,0,1,7,2,6.16,6.16,0,0,1,2.64,5.18h-6.87c0-1.76-.93-2.64-2.78-2.64a2.76,2.76,0,0,0-1.81.6,1.84,1.84,0,0,0-.73,1.49,1.71,1.71,0,0,0,.89,1.48,8.6,8.6,0,0,0,2.86.94,24.22,24.22,0,0,1,3.44.87c3.3,1.14,5,3.18,5,6.12a5.75,5.75,0,0,1-2.67,4.89,11.74,11.74,0,0,1-6.92,1.89,11.94,11.94,0,0,1-5-1,8.25,8.25,0,0,1-3.45-2.76,6.21,6.21,0,0,1-1.24-3.67h6.4a2.63,2.63,0,0,0,1,2.22,4.17,4.17,0,0,0,2.5.7,3.25,3.25,0,0,0,2.1-.57A1.81,1.81,0,0,0,390.06,119Z"
            transform="translate(-27.57 -22.96)" />
        <path
            d="M399.82,97.49a3.06,3.06,0,0,1,1.05-2.4,4.48,4.48,0,0,1,5.49,0,3.26,3.26,0,0,1,0,4.79,4.48,4.48,0,0,1-5.49,0A3.05,3.05,0,0,1,399.82,97.49Zm7.27,27.64h-6.87v-22h6.87Z"
            transform="translate(-27.57 -22.96)" />
        <path
            d="M419.28,97.69v5.46h3.61v4.76h-3.61v10a2.63,2.63,0,0,0,.44,1.73,2.43,2.43,0,0,0,1.77.49,10.22,10.22,0,0,0,1.71-.12V125a12.71,12.71,0,0,1-3.86.59c-2.36,0-4.1-.55-5.22-1.67a6.79,6.79,0,0,1-1.69-5.05V107.91h-2.8v-4.76h2.8V97.69Z"
            transform="translate(-27.57 -22.96)" />
        <path
            d="M438.68,122.76a7.08,7.08,0,0,1-5.87,2.78,6.94,6.94,0,0,1-5.48-2.1,8.85,8.85,0,0,1-1.86-6V103.15h6.85v14.29c0,1.88.91,2.82,2.74,2.82a3.56,3.56,0,0,0,3.35-1.69V103.15h6.89v22h-6.42Z"
            transform="translate(-27.57 -22.96)" />
        <path
            d="M461.43,125.13a7.75,7.75,0,0,1-.65-2,6.35,6.35,0,0,1-5.28,2.38,7.81,7.81,0,0,1-5.28-1.88,6,6,0,0,1-2.18-4.72,6.14,6.14,0,0,1,2.65-5.41q2.64-1.82,7.67-1.82h2.12v-1.17c0-2-.88-3-2.62-3a2.14,2.14,0,0,0-2.44,2.41h-6.85a6.15,6.15,0,0,1,2.71-5.17,11.39,11.39,0,0,1,6.92-2,10,10,0,0,1,6.64,2,7.12,7.12,0,0,1,2.5,5.63v9.73a9.93,9.93,0,0,0,.94,4.63v.34Zm-4.28-4.46a3.86,3.86,0,0,0,2.12-.55,3.55,3.55,0,0,0,1.21-1.24v-3.52h-2q-3.58,0-3.58,3.21a2,2,0,0,0,.63,1.52A2.32,2.32,0,0,0,457.15,120.67Z"
            transform="translate(-27.57 -22.96)" />
        <path
            d="M480.43,120.26a3,3,0,0,0,2.23-.78,2.84,2.84,0,0,0,.77-2.19h6.42a7.58,7.58,0,0,1-2.59,5.93,9.59,9.59,0,0,1-6.67,2.32,9.74,9.74,0,0,1-7.56-3q-2.76-3-2.76-8.33v-.28A13.38,13.38,0,0,1,471.5,108a8.94,8.94,0,0,1,3.54-3.92,10.55,10.55,0,0,1,5.49-1.37,9.51,9.51,0,0,1,6.8,2.37,8.45,8.45,0,0,1,2.52,6.44h-6.42a3.75,3.75,0,0,0-.83-2.62,2.87,2.87,0,0,0-2.23-.91c-1.78,0-2.81,1.13-3.11,3.39a23.11,23.11,0,0,0-.14,3,9.37,9.37,0,0,0,.79,4.59A2.74,2.74,0,0,0,480.43,120.26Zm3,4.67-.2,1.24a3.29,3.29,0,0,1,3.05,3.52,4.2,4.2,0,0,1-2,3.69,10,10,0,0,1-5.59,1.34l-.14-3.78c1.19,0,1.78-.52,1.78-1.56a1.1,1.1,0,0,0-.64-1.08,6.09,6.09,0,0,0-2.08-.4l.63-3Z"
            transform="translate(-27.57 -22.96)" />
        <path
            d="M505.13,125.13a7.75,7.75,0,0,1-.65-2,6.35,6.35,0,0,1-5.28,2.38,7.8,7.8,0,0,1-5.28-1.88,6,6,0,0,1-2.18-4.72,6.15,6.15,0,0,1,2.64-5.41q2.64-1.82,7.68-1.82h2.11v-1.17c0-2-.87-3-2.62-3a2.14,2.14,0,0,0-2.43,2.41h-6.85a6.12,6.12,0,0,1,2.71-5.17,11.39,11.39,0,0,1,6.92-2,10,10,0,0,1,6.64,2,7.12,7.12,0,0,1,2.5,5.63v9.73a9.93,9.93,0,0,0,.94,4.63v.34Zm4.39-31A5.9,5.9,0,0,1,508.17,98a4.2,4.2,0,0,1-3.35,1.62,6.7,6.7,0,0,1-3-.85,6.28,6.28,0,0,0-2.66-.86,1.51,1.51,0,0,0-1.11.45,1.88,1.88,0,0,0-.46,1.38l-3.8-.2a5.89,5.89,0,0,1,1.36-3.9A4.13,4.13,0,0,1,498.49,94a6.9,6.9,0,0,1,2.66.75,16.77,16.77,0,0,0,2.08.86,4.55,4.55,0,0,0,.92.1,1.55,1.55,0,0,0,1.12-.45,1.89,1.89,0,0,0,.47-1.4Zm-8.68,26.58a3.89,3.89,0,0,0,2.13-.55,3.43,3.43,0,0,0,1.2-1.24v-3.52h-2q-3.57,0-3.57,3.21a2,2,0,0,0,.63,1.52A2.29,2.29,0,0,0,500.84,120.67Z"
            transform="translate(-27.57 -22.96)" />
        <path
            d="M514,113.94a12.88,12.88,0,0,1,1.28-5.86,9.18,9.18,0,0,1,3.67-4,11.11,11.11,0,0,1,5.63-1.38,10.12,10.12,0,0,1,7.78,3,11.74,11.74,0,0,1,2.85,8.32v.25a11.39,11.39,0,0,1-2.86,8.15,10.1,10.1,0,0,1-7.73,3,10.28,10.28,0,0,1-7.54-2.81A11,11,0,0,1,514,115.1Zm6.84.43a8.15,8.15,0,0,0,1,4.47,3.18,3.18,0,0,0,2.82,1.42q3.66,0,3.74-5.63v-.69q0-5.91-3.78-5.91-3.43,0-3.72,5.1Z"
            transform="translate(-27.57 -22.96)" />
        <path
            d="M547.69,114q0-5.22,2.25-8.23a7.45,7.45,0,0,1,6.3-3,6.32,6.32,0,0,1,5,2.31V93.93h6.87v31.2h-6.16l-.35-2.35a6.46,6.46,0,0,1-5.36,2.76,7.41,7.41,0,0,1-6.22-3Q547.69,119.53,547.69,114Zm6.85.43c0,3.9,1.13,5.85,3.41,5.85a3.38,3.38,0,0,0,3.25-1.91V110a3.27,3.27,0,0,0-3.21-2c-2.11,0-3.26,1.71-3.43,5.12Z"
            transform="translate(-27.57 -22.96)" />
        <path
            d="M582.59,125.54a11.28,11.28,0,0,1-8.19-3,10.42,10.42,0,0,1-3.12-7.85v-.57a13.55,13.55,0,0,1,1.24-5.95,9.17,9.17,0,0,1,3.65-4,11,11,0,0,1,5.69-1.41,9.51,9.51,0,0,1,7.31,2.87q2.69,2.88,2.68,8v2.66H578.24a4.93,4.93,0,0,0,1.61,2.9,4.73,4.73,0,0,0,3.21,1.06,6.16,6.16,0,0,0,5.08-2.28l3.13,3.7a8.75,8.75,0,0,1-3.63,2.81A12.21,12.21,0,0,1,582.59,125.54ZM581.82,108q-3,0-3.58,4h6.91v-.53a3.41,3.41,0,0,0-.83-2.55A3.33,3.33,0,0,0,581.82,108Z"
            transform="translate(-27.57 -22.96)" />
        <path d="M613.73,117l3.48-13.84h7.21l-7.17,22h-7l-7.17-22h7.23Z" transform="translate(-27.57 -22.96)" />
        <path
            d="M639.55,122.76a7.05,7.05,0,0,1-5.87,2.78,6.92,6.92,0,0,1-5.47-2.1,8.85,8.85,0,0,1-1.86-6V103.15h6.85v14.29c0,1.88.91,2.82,2.74,2.82a3.56,3.56,0,0,0,3.35-1.69V103.15h6.89v22h-6.42Z"
            transform="translate(-27.57 -22.96)" />
        <path d="M657.15,125.13h-6.87V93.93h6.87Z" transform="translate(-27.57 -22.96)" />
        <path
            d="M667.65,103.15l.22,2.58a7.46,7.46,0,0,1,6.28-3,6.26,6.26,0,0,1,5.13,2Q681,106.86,681,111v14.16h-6.87V111.26a3.7,3.7,0,0,0-.67-2.45,3.11,3.11,0,0,0-2.44-.78,3.26,3.26,0,0,0-3,1.58v15.52h-6.85v-22Z"
            transform="translate(-27.57 -22.96)" />
        <path
            d="M695.46,125.54a11.24,11.24,0,0,1-8.18-3,10.39,10.39,0,0,1-3.13-7.85v-.57a13.42,13.42,0,0,1,1.25-5.95,9.09,9.09,0,0,1,3.64-4,11,11,0,0,1,5.69-1.41,9.51,9.51,0,0,1,7.31,2.87q2.69,2.88,2.69,8v2.66H691.11a4.93,4.93,0,0,0,1.61,2.9,4.76,4.76,0,0,0,3.21,1.06A6.15,6.15,0,0,0,701,118l3.13,3.7a8.75,8.75,0,0,1-3.63,2.81A12.21,12.21,0,0,1,695.46,125.54ZM694.69,108c-2,0-3.2,1.33-3.58,4H698v-.53a3.41,3.41,0,0,0-.83-2.55A3.33,3.33,0,0,0,694.69,108Z"
            transform="translate(-27.57 -22.96)" />
        <path
            d="M720.77,109.35l-2.25-.16c-2.15,0-3.54.67-4.14,2v13.91h-6.85v-22H714l.22,2.83c1.15-2.16,2.76-3.23,4.82-3.23a6.83,6.83,0,0,1,1.91.24Z"
            transform="translate(-27.57 -22.96)" />
        <path
            d="M735,125.13a7,7,0,0,1-.65-2,6.36,6.36,0,0,1-5.29,2.38,7.81,7.81,0,0,1-5.28-1.88,6,6,0,0,1-2.17-4.72,6.15,6.15,0,0,1,2.64-5.41q2.64-1.82,7.68-1.82h2.11v-1.17c0-2-.87-3-2.62-3a2.14,2.14,0,0,0-2.44,2.41h-6.84a6.12,6.12,0,0,1,2.71-5.17,11.37,11.37,0,0,1,6.92-2,10,10,0,0,1,6.64,2,7.15,7.15,0,0,1,2.5,5.63v9.73a9.94,9.94,0,0,0,.93,4.63v.34Zm-4.29-4.46a3.86,3.86,0,0,0,2.12-.55,3.47,3.47,0,0,0,1.21-1.24v-3.52h-2c-2.38,0-3.58,1.07-3.58,3.21a2,2,0,0,0,.63,1.52A2.32,2.32,0,0,0,730.73,120.67Z"
            transform="translate(-27.57 -22.96)" />
        <path
            d="M765.12,114.33q0,5.4-2.23,8.31a7.5,7.5,0,0,1-6.3,2.9,6.49,6.49,0,0,1-5.4-2.66l-.29,2.25h-6.13V93.93h6.84v11a6.27,6.27,0,0,1,4.94-2.17,7.49,7.49,0,0,1,6.34,2.94q2.24,3,2.23,8.29Zm-6.86-.44a8.94,8.94,0,0,0-.85-4.51,2.83,2.83,0,0,0-2.59-1.35,3.29,3.29,0,0,0-3.21,1.76v8.72a3.29,3.29,0,0,0,3.25,1.75,2.91,2.91,0,0,0,3.07-2.35A16.67,16.67,0,0,0,758.26,113.89Z"
            transform="translate(-27.57 -22.96)" />
        <path
            d="M768.09,97.49a3,3,0,0,1,1.06-2.4,4.46,4.46,0,0,1,5.48,0,3.24,3.24,0,0,1,0,4.79,4.46,4.46,0,0,1-5.48,0A3,3,0,0,1,768.09,97.49Zm7.27,27.64H768.5v-22h6.86Z"
            transform="translate(-27.57 -22.96)" />
        <path d="M786.8,125.13h-6.87V93.93h6.87Z" transform="translate(-27.57 -22.96)" />
        <path
            d="M791,97.49a3.07,3.07,0,0,1,1.06-2.4,4.46,4.46,0,0,1,5.48,0,3.24,3.24,0,0,1,0,4.79,4.46,4.46,0,0,1-5.48,0A3.06,3.06,0,0,1,791,97.49Zm7.28,27.64h-6.87v-22h6.87Z"
            transform="translate(-27.57 -22.96)" />
        <path
            d="M801.59,114q0-5.22,2.25-8.23a7.45,7.45,0,0,1,6.3-3,6.33,6.33,0,0,1,5,2.31V93.93H822v31.2h-6.15l-.35-2.35a6.48,6.48,0,0,1-5.36,2.76,7.41,7.41,0,0,1-6.22-3Q801.59,119.53,801.59,114Zm6.84.43q0,5.85,3.42,5.85a3.38,3.38,0,0,0,3.25-1.91V110a3.29,3.29,0,0,0-3.21-2c-2.12,0-3.26,1.71-3.44,5.12Z"
            transform="translate(-27.57 -22.96)" />
        <path
            d="M838.24,125.13a7.37,7.37,0,0,1-.65-2,6.36,6.36,0,0,1-5.29,2.38,7.81,7.81,0,0,1-5.28-1.88,6,6,0,0,1-2.17-4.72,6.15,6.15,0,0,1,2.64-5.41q2.64-1.82,7.68-1.82h2.11v-1.17c0-2-.87-3-2.62-3a2.14,2.14,0,0,0-2.44,2.41h-6.84a6.12,6.12,0,0,1,2.71-5.17,11.37,11.37,0,0,1,6.92-2,10,10,0,0,1,6.64,2,7.15,7.15,0,0,1,2.5,5.63v9.73a9.94,9.94,0,0,0,.93,4.63v.34ZM834,120.67a3.86,3.86,0,0,0,2.12-.55,3.47,3.47,0,0,0,1.21-1.24v-3.52h-2c-2.38,0-3.58,1.07-3.58,3.21a2,2,0,0,0,.63,1.52A2.32,2.32,0,0,0,834,120.67Z"
            transform="translate(-27.57 -22.96)" />
        <path
            d="M847.07,114c0-3.48.76-6.22,2.26-8.23a7.42,7.42,0,0,1,6.3-3,6.31,6.31,0,0,1,5,2.31V93.93h6.87v31.2H861.3l-.35-2.35a6.49,6.49,0,0,1-5.36,2.76,7.4,7.4,0,0,1-6.22-3Q847.08,119.53,847.07,114Zm6.85.43q0,5.85,3.41,5.85a3.37,3.37,0,0,0,3.25-1.91V110a3.27,3.27,0,0,0-3.21-2q-3.17,0-3.43,5.12Z"
            transform="translate(-27.57 -22.96)" />
        <path
            d="M882,125.54a11.24,11.24,0,0,1-8.18-3,10.39,10.39,0,0,1-3.13-7.85v-.57a13.55,13.55,0,0,1,1.25-5.95,9.15,9.15,0,0,1,3.64-4,11,11,0,0,1,5.69-1.41,9.55,9.55,0,0,1,7.32,2.87c1.78,1.92,2.68,4.59,2.68,8v2.66H877.63a4.92,4.92,0,0,0,1.6,2.9,4.76,4.76,0,0,0,3.21,1.06,6.15,6.15,0,0,0,5.08-2.28l3.13,3.7a8.62,8.62,0,0,1-3.63,2.81A12.18,12.18,0,0,1,882,125.54ZM881.2,108q-3,0-3.57,4h6.9v-.53a3.41,3.41,0,0,0-.83-2.55A3.31,3.31,0,0,0,881.2,108Z"
            transform="translate(-27.57 -22.96)" />
    </g>
    <g id="eventos">
        <path d="M616.17,353.26v21.63h19.51V349.76h5.93v31.72H586.56V350.11h5.94v24.78h17.73V353.26Z"
            transform="translate(-27.57 -22.96)" />
        <path d="M632.12,331.22,600.71,322v-6.48l40.9,13.3v4.84l-40.9,13.44v-6.48Z"
            transform="translate(-27.57 -22.96)" />
        <path
            d="M642.37,294.5a15.5,15.5,0,0,1-5.46,12.28q-5.48,4.73-14.62,4.73H621a26.78,26.78,0,0,1-10.87-2.11,17.79,17.79,0,0,1-7.49-5.9,13.84,13.84,0,0,1-2.7-8.21q0-7.23,5.25-11.24t15-4h2.91v25.12a15.47,15.47,0,0,0,9.78-3.2,9.69,9.69,0,0,0,3.72-7.8,10.21,10.21,0,0,0-1.51-5.69,14.93,14.93,0,0,0-4-4.08l3.33-3.87A15.2,15.2,0,0,1,642.37,294.5Zm-36.67.79a8.11,8.11,0,0,0,3.08,6.45,15.82,15.82,0,0,0,8.64,3.22V286.38h-.53q-5.34.27-8.26,2.6A7.63,7.63,0,0,0,605.7,295.29Z"
            transform="translate(-27.57 -22.96)" />
        <path
            d="M600.71,266.7l5.14-.21a13.09,13.09,0,0,1-5.9-11.1q0-11.76,14.63-11.86h27v6.34H614.54q-4.42,0-6.54,1.83t-2.12,5.61a8.56,8.56,0,0,0,1.82,5.41,12.11,12.11,0,0,0,4.76,3.64h29.15v6.34h-40.9Z"
            transform="translate(-27.57 -22.96)" />
        <path
            d="M590.8,225.36h9.91v-6.93h5.4v6.93h25.4a6.08,6.08,0,0,0,3.69-.93,3.7,3.7,0,0,0,1.23-3.15,14.15,14.15,0,0,0-.45-3h5.64a16.92,16.92,0,0,1,.75,4.87,7.58,7.58,0,0,1-2.83,6.41c-1.9,1.44-4.58,2.16-8.06,2.16H606.11v6.75h-5.4V231.7H590.8Z"
            transform="translate(-27.57 -22.96)" />
        <path
            d="M620.78,213.39A26.21,26.21,0,0,1,610,211.25a17.2,17.2,0,0,1-7.41-6,15.88,15.88,0,0,1,3.17-21q5.79-4.68,15.39-4.68h.49a26.52,26.52,0,0,1,10.72,2.08,16.86,16.86,0,0,1,7.39,5.93,15.23,15.23,0,0,1,2.65,8.86,15,15,0,0,1-5.78,12.22q-5.79,4.68-15.32,4.68Zm.83-6.37q6.81,0,10.93-2.87a9.16,9.16,0,0,0-.06-15.34q-4.17-2.84-11.7-2.84-6.72,0-10.91,2.89a9,9,0,0,0-4.17,7.7,8.84,8.84,0,0,0,4.12,7.58C612.56,206.06,616.5,207,621.61,207Z"
            transform="translate(-27.57 -22.96)" />
        <path
            d="M630.76,150.07a5.34,5.34,0,0,0-4.4,1.94q-1.58,1.94-2.7,6.75a30.09,30.09,0,0,1-2.73,7.65,11.24,11.24,0,0,1-3.78,4.18,9.75,9.75,0,0,1-5.22,1.35,11,11,0,0,1-8.5-3.85,14.16,14.16,0,0,1-3.48-9.86A14.59,14.59,0,0,1,603.54,148a11.91,11.91,0,0,1,9.19-3.93v6.38a6.56,6.56,0,0,0-5,2.21,7.8,7.8,0,0,0-2.08,5.57,8.09,8.09,0,0,0,1.66,5.42,5.45,5.45,0,0,0,4.35,1.95,4.38,4.38,0,0,0,3.82-1.81,21.28,21.28,0,0,0,2.45-6.57,32.79,32.79,0,0,1,2.8-7.7,11.62,11.62,0,0,1,3.92-4.37,10.4,10.4,0,0,1,5.57-1.42,10.85,10.85,0,0,1,8.79,4A15.57,15.57,0,0,1,642.37,158a17.15,17.15,0,0,1-1.74,7.88,13.17,13.17,0,0,1-4.86,5.37,12.57,12.57,0,0,1-6.75,1.93v-6.34a7.48,7.48,0,0,0,5.58-2.55,9.31,9.31,0,0,0,2.06-6.29,9.45,9.45,0,0,0-1.61-5.78A5.07,5.07,0,0,0,630.76,150.07Z"
            transform="translate(-27.57 -22.96)" />
    </g>
    <g id="lgbt">
        <path d="M103.58,230.62h14.47V237H95.27V202.55h8.31Z" transform="translate(-27.57 -22.96)" />
        <path
            d="M148.25,232.75a13.41,13.41,0,0,1-5.61,3.44,24.38,24.38,0,0,1-8.09,1.3q-6.78,0-10.82-4.14t-4.33-11.53l0-3a20.53,20.53,0,0,1,1.8-8.89,13.33,13.33,0,0,1,5.15-5.85,14.52,14.52,0,0,1,7.75-2q6.44,0,10,2.95c2.38,2,3.76,4.9,4.16,8.79h-8a6.59,6.59,0,0,0-1.85-4.12,6,6,0,0,0-4-1.23,5.42,5.42,0,0,0-4.83,2.65c-1.14,1.77-1.71,4.3-1.73,7.58v2.08c0,3.44.59,6,1.76,7.75a6.25,6.25,0,0,0,5.55,2.6,6.92,6.92,0,0,0,4.83-1.45V224.3h-5.77v-5.7h14.08Z"
            transform="translate(-27.57 -22.96)" />
        <path
            d="M153.08,237V202.55h12.38q6.66,0,10.12,2.44a8.1,8.1,0,0,1,3.47,7.07,8.19,8.19,0,0,1-1.23,4.57,7.15,7.15,0,0,1-3.62,2.8,7.2,7.2,0,0,1,4.14,2.65,7.71,7.71,0,0,1,1.44,4.73q0,5.07-3.2,7.61T167.07,237Zm8.31-20.09h4.33a6.15,6.15,0,0,0,3.88-1,3.52,3.52,0,0,0,1.16-2.87,3.71,3.71,0,0,0-1.25-3.15,6.74,6.74,0,0,0-4-1h-4.07Zm0,5.44v8.26h5.44a5.16,5.16,0,0,0,3.46-1,3.58,3.58,0,0,0,1.21-2.9q0-4.31-4.29-4.33Z"
            transform="translate(-27.57 -22.96)" />
        <path d="M210.77,209H200.42v28h-8.3V209H182v-6.41h28.81Z" transform="translate(-27.57 -22.96)" />
        <path
            d="M242.84,220.49a20.36,20.36,0,0,1-1.58,8.35,14.52,14.52,0,0,1-4.38,5.71l5.56,4.41-5.14,4.35-7.4-6a16.3,16.3,0,0,1-2.09.14,14.92,14.92,0,0,1-7.81-2,13.83,13.83,0,0,1-5.31-5.82,19.84,19.84,0,0,1-2-8.71V219.1a20.36,20.36,0,0,1,1.86-8.95,13.88,13.88,0,0,1,5.3-6,15.81,15.81,0,0,1,15.71,0,14,14,0,0,1,5.33,5.93,19.73,19.73,0,0,1,1.93,8.82Zm-8.45-1.44q0-5.15-1.71-7.8a5.92,5.92,0,0,0-9.86,0q-1.66,2.63-1.68,7.7v1.58c0,3.39.56,6,1.68,7.8a5.49,5.49,0,0,0,5,2.71,5.43,5.43,0,0,0,4.87-2.67c1.12-1.79,1.7-4.35,1.71-7.7Z"
            transform="translate(-27.57 -22.96)" />
        <path d="M261.09,217.46h8.08v6.84h-8.08v9.26h-7.45V224.3h-8.1v-6.84h8.1v-9h7.45Z"
            transform="translate(-27.57 -22.96)" />
    </g>
    <g id="portugues">
        <path
            d="M117.92,291.89a3.36,3.36,0,0,0-1.31-2.84,17.29,17.29,0,0,0-4.7-2.08,33.14,33.14,0,0,1-5.37-2.17q-5.39-2.91-5.39-7.85a7.64,7.64,0,0,1,1.45-4.58,9.42,9.42,0,0,1,4.15-3.14,15.69,15.69,0,0,1,6.08-1.13,14.2,14.2,0,0,1,6,1.23A9.6,9.6,0,0,1,123,272.8a9.06,9.06,0,0,1,1.47,5.09h-6.52a4.27,4.27,0,0,0-1.37-3.38,5.61,5.61,0,0,0-3.85-1.21,6,6,0,0,0-3.72,1,3.19,3.19,0,0,0-1.33,2.66,3,3,0,0,0,1.56,2.59,17.46,17.46,0,0,0,4.58,2q5.56,1.68,8.11,4.15a8.3,8.3,0,0,1,2.54,6.18,7.61,7.61,0,0,1-3.11,6.45c-2.07,1.56-4.86,2.33-8.37,2.33a16.15,16.15,0,0,1-6.65-1.33,10.49,10.49,0,0,1-4.58-3.67,9.39,9.39,0,0,1-1.58-5.39h6.55c0,3.49,2.08,5.24,6.26,5.24a6.1,6.1,0,0,0,3.63-.94A3.11,3.11,0,0,0,117.92,291.89Z"
            transform="translate(-27.57 -22.96)" />
        <path
            d="M139.29,300.63a11.51,11.51,0,0,1-8.42-3.17,11.29,11.29,0,0,1-3.25-8.46v-.61a14.16,14.16,0,0,1,1.37-6.34,10,10,0,0,1,3.88-4.3,10.86,10.86,0,0,1,5.73-1.52,9.77,9.77,0,0,1,7.6,3q2.78,3,2.77,8.63v2.57H134a5.79,5.79,0,0,0,1.84,3.7,5.57,5.57,0,0,0,3.88,1.39,6.78,6.78,0,0,0,5.67-2.63l3.09,3.45a9.42,9.42,0,0,1-3.83,3.13A12.62,12.62,0,0,1,139.29,300.63Zm-.71-19.33a3.93,3.93,0,0,0-3,1.27,6.6,6.6,0,0,0-1.49,3.63h8.75v-.51a4.68,4.68,0,0,0-1.13-3.24A4.05,4.05,0,0,0,138.58,281.3Z"
            transform="translate(-27.57 -22.96)" />
        <path
            d="M165.76,282.56a18,18,0,0,0-2.26-.17q-3.57,0-4.68,2.41v15.4h-6.28V276.67h5.94l.17,2.8a5.82,5.82,0,0,1,5.24-3.24,6.54,6.54,0,0,1,2,.29Z"
            transform="translate(-27.57 -22.96)" />
        <path d="M178,292.52l4.37-15.85h6.57L181,300.2h-6L167,276.67h6.57Z" transform="translate(-27.57 -22.96)" />
        <path
            d="M191.64,270.58a3.11,3.11,0,0,1,1-2.33,4.08,4.08,0,0,1,5.14,0,3.32,3.32,0,0,1,0,4.68,4,4,0,0,1-5.11,0A3.07,3.07,0,0,1,191.64,270.58Zm6.68,29.62H192V276.67h6.31Z"
            transform="translate(-27.57 -22.96)" />
        <path
            d="M213.28,295.57a4.13,4.13,0,0,0,2.83-1,3.36,3.36,0,0,0,1.13-2.54h5.89a8.08,8.08,0,0,1-1.3,4.38,8.67,8.67,0,0,1-3.52,3.09,11,11,0,0,1-4.92,1.09,10.19,10.19,0,0,1-8-3.2q-2.93-3.21-2.92-8.86v-.42a12.58,12.58,0,0,1,2.9-8.68,10.07,10.07,0,0,1,7.93-3.24,9.86,9.86,0,0,1,7.08,2.52,8.87,8.87,0,0,1,2.71,6.68h-5.89a4.33,4.33,0,0,0-1.13-3,4.2,4.2,0,0,0-6.19.45q-1.12,1.61-1.12,5.2v.65q0,3.64,1.11,5.23A3.83,3.83,0,0,0,213.28,295.57Zm2.28,4.5-.24,1.26a3.5,3.5,0,0,1,3.27,3.76,4.4,4.4,0,0,1-2,3.79,9.76,9.76,0,0,1-5.6,1.39l-.16-3.63c1.63,0,2.44-.59,2.44-1.76a1.24,1.24,0,0,0-.73-1.25,7,7,0,0,0-2.36-.45l.67-3.11Z"
            transform="translate(-27.57 -22.96)" />
        <path
            d="M225.74,288.22a13.9,13.9,0,0,1,1.35-6.24,9.85,9.85,0,0,1,3.88-4.24,11.24,11.24,0,0,1,5.88-1.51,10.74,10.74,0,0,1,7.78,2.92,11.67,11.67,0,0,1,3.36,7.91l0,1.61a12.32,12.32,0,0,1-3,8.69,11.73,11.73,0,0,1-16.24,0q-3-3.25-3-8.87Zm6.29.44a8.79,8.79,0,0,0,1.26,5.13,4.52,4.52,0,0,0,7.17,0q1.29-1.74,1.29-5.6a8.66,8.66,0,0,0-1.29-5.1,4.16,4.16,0,0,0-3.61-1.81,4.1,4.1,0,0,0-3.56,1.8A9.79,9.79,0,0,0,232,288.66Z"
            transform="translate(-27.57 -22.96)" />
        <path
            d="M264.65,293.7a2,2,0,0,0-1.15-1.82,13.1,13.1,0,0,0-3.66-1.18q-8.4-1.77-8.39-7.14a6.48,6.48,0,0,1,2.59-5.23,10.5,10.5,0,0,1,6.8-2.1,11.33,11.33,0,0,1,7.17,2.11,6.66,6.66,0,0,1,2.68,5.48h-6.28a3,3,0,0,0-.87-2.22,3.68,3.68,0,0,0-2.72-.89,3.76,3.76,0,0,0-2.46.72,2.27,2.27,0,0,0-.87,1.83,1.91,1.91,0,0,0,1,1.68,10.06,10.06,0,0,0,3.34,1.11,29.06,29.06,0,0,1,4,1.06q5,1.83,5,6.33a6.15,6.15,0,0,1-2.76,5.21,12,12,0,0,1-7.14,2,12.49,12.49,0,0,1-5.25-1.05,8.82,8.82,0,0,1-3.6-2.89,6.73,6.73,0,0,1-1.3-4h6a3.29,3.29,0,0,0,1.23,2.57,5,5,0,0,0,3.09.89,4.5,4.5,0,0,0,2.73-.69A2.11,2.11,0,0,0,264.65,293.7Z"
            transform="translate(-27.57 -22.96)" />
        <path
            d="M296.72,300.63a11.51,11.51,0,0,1-8.42-3.17,11.29,11.29,0,0,1-3.25-8.46v-.61a14.16,14.16,0,0,1,1.37-6.34,10,10,0,0,1,3.88-4.3,10.86,10.86,0,0,1,5.73-1.52,9.77,9.77,0,0,1,7.6,3q2.78,3,2.77,8.63v2.57h-15a5.83,5.83,0,0,0,1.83,3.7,5.62,5.62,0,0,0,3.89,1.39,6.78,6.78,0,0,0,5.67-2.63l3.09,3.45a9.42,9.42,0,0,1-3.83,3.13A12.65,12.65,0,0,1,296.72,300.63ZM296,281.3a3.93,3.93,0,0,0-3,1.27,6.6,6.6,0,0,0-1.49,3.63h8.75v-.51a4.64,4.64,0,0,0-1.14-3.24A4,4,0,0,0,296,281.3Z"
            transform="translate(-27.57 -22.96)" />
        <path
            d="M315.86,276.67l.2,2.63a8.27,8.27,0,0,1,6.76-3.07q4.55,0,6.24,3.59a8.1,8.1,0,0,1,7.07-3.59c2.55,0,4.45.75,5.7,2.23s1.87,3.73,1.87,6.71v15h-6.31v-15a4.49,4.49,0,0,0-.78-2.92,3.45,3.45,0,0,0-2.76-.93,3.93,3.93,0,0,0-3.92,2.7l0,16.16h-6.28v-15a4.4,4.4,0,0,0-.81-3,3.49,3.49,0,0,0-2.74-.92,4.09,4.09,0,0,0-3.87,2.22V300.2H310V276.67Z"
            transform="translate(-27.57 -22.96)" />
        <path
            d="M380.8,288.65a14.07,14.07,0,0,1-2.47,8.71,7.91,7.91,0,0,1-6.66,3.27,7.35,7.35,0,0,1-5.77-2.47v11.09h-6.28V276.67h5.83l.21,2.3a7.42,7.42,0,0,1,6-2.74,8,8,0,0,1,6.77,3.22c1.6,2.15,2.41,5.11,2.41,8.88Zm-6.29-.45a9.24,9.24,0,0,0-1.16-5.07,3.79,3.79,0,0,0-3.38-1.79,4.12,4.12,0,0,0-4.07,2.27v9.63a4.19,4.19,0,0,0,4.11,2.33Q374.51,295.57,374.51,288.2Z"
            transform="translate(-27.57 -22.96)" />
        <path
            d="M383.71,288.22a13.9,13.9,0,0,1,1.35-6.24,9.85,9.85,0,0,1,3.88-4.24,11.25,11.25,0,0,1,5.89-1.51,10.73,10.73,0,0,1,7.77,2.92,11.67,11.67,0,0,1,3.36,7.91l0,1.61a12.28,12.28,0,0,1-3,8.69,11.72,11.72,0,0,1-16.23,0q-3-3.25-3-8.87Zm6.29.44a8.79,8.79,0,0,0,1.26,5.13,4.14,4.14,0,0,0,3.61,1.78,4.19,4.19,0,0,0,3.57-1.76q1.28-1.74,1.28-5.6a8.73,8.73,0,0,0-1.28-5.1,4.17,4.17,0,0,0-3.61-1.81,4.1,4.1,0,0,0-3.57,1.8A9.79,9.79,0,0,0,390,288.66Z"
            transform="translate(-27.57 -22.96)" />
        <path
            d="M423.1,282.56a18.15,18.15,0,0,0-2.26-.17q-3.57,0-4.68,2.41v15.4h-6.28V276.67h5.93l.18,2.8a5.81,5.81,0,0,1,5.24-3.24,6.47,6.47,0,0,1,1.95.29Z"
            transform="translate(-27.57 -22.96)" />
        <path
            d="M434.73,270.88v5.79h4v4.61h-4V293a2.81,2.81,0,0,0,.5,1.87,2.51,2.51,0,0,0,1.92.57,10.26,10.26,0,0,0,1.85-.15v4.76a12.92,12.92,0,0,1-3.81.56q-6.62,0-6.74-6.67V281.28H425v-4.61h3.44v-5.79Z"
            transform="translate(-27.57 -22.96)" />
        <path
            d="M456.35,297.81a7.89,7.89,0,0,1-6.44,2.82,7.42,7.42,0,0,1-5.77-2.17q-2-2.18-2-6.37V276.67h6.28v15.22q0,3.67,3.35,3.68,3.19,0,4.39-2.22V276.67h6.31V300.2h-5.92Z"
            transform="translate(-27.57 -22.96)" />
        <path
            d="M466.27,288.26a13.83,13.83,0,0,1,2.57-8.72,8.37,8.37,0,0,1,7-3.31,7.34,7.34,0,0,1,6,2.66l.26-2.22h5.69v22.75a10,10,0,0,1-1.4,5.37,9,9,0,0,1-3.94,3.48,13.87,13.87,0,0,1-6,1.19,12.89,12.89,0,0,1-5.05-1,9,9,0,0,1-3.72-2.66l2.79-3.83a7.35,7.35,0,0,0,5.69,2.63,5.37,5.37,0,0,0,3.9-1.34,5,5,0,0,0,1.39-3.79v-1.26a7.26,7.26,0,0,1-5.72,2.45,8.31,8.31,0,0,1-6.86-3.31,13.76,13.76,0,0,1-2.62-8.8Zm6.28.47a8.63,8.63,0,0,0,1.28,5,4.1,4.1,0,0,0,3.53,1.82,4.37,4.37,0,0,0,4.11-2.16V283.5a4.36,4.36,0,0,0-4.07-2.16,4.09,4.09,0,0,0-3.55,1.86A9.61,9.61,0,0,0,472.55,288.73Z"
            transform="translate(-27.57 -22.96)" />
        <path
            d="M506.69,297.81a7.87,7.87,0,0,1-6.43,2.82,7.44,7.44,0,0,1-5.78-2.17q-2-2.18-2-6.37V276.67h6.29v15.22q0,3.67,3.34,3.68c2.14,0,3.6-.74,4.4-2.22V276.67h6.31V300.2h-5.92Z"
            transform="translate(-27.57 -22.96)" />
        <path
            d="M528.36,300.63a11.55,11.55,0,0,1-8.43-3.17,11.29,11.29,0,0,1-3.25-8.46v-.61a14.16,14.16,0,0,1,1.37-6.34,10,10,0,0,1,3.88-4.3,10.86,10.86,0,0,1,5.73-1.52,9.77,9.77,0,0,1,7.6,3q2.78,3,2.77,8.63v2.57h-15a5.79,5.79,0,0,0,1.84,3.7,5.57,5.57,0,0,0,3.88,1.39,6.78,6.78,0,0,0,5.67-2.63l3.09,3.45a9.45,9.45,0,0,1-3.82,3.13A12.68,12.68,0,0,1,528.36,300.63Zm6.93-27.75v.26h-5L526.94,270l-3.35,3.16h-4.91v-.35l6.44-6h3.65Zm-7.65,8.42a3.93,3.93,0,0,0-3,1.27,6.6,6.6,0,0,0-1.49,3.63h8.75v-.51a4.68,4.68,0,0,0-1.13-3.24A4.05,4.05,0,0,0,527.64,281.3Z"
            transform="translate(-27.57 -22.96)" />
        <path
            d="M554.34,293.7a2,2,0,0,0-1.14-1.82,13.1,13.1,0,0,0-3.66-1.18q-8.4-1.77-8.4-7.14a6.49,6.49,0,0,1,2.6-5.23,10.48,10.48,0,0,1,6.8-2.1,11.32,11.32,0,0,1,7.16,2.11,6.67,6.67,0,0,1,2.69,5.48H554.1a3,3,0,0,0-.87-2.22,3.65,3.65,0,0,0-2.71-.89,3.76,3.76,0,0,0-2.46.72,2.27,2.27,0,0,0-.87,1.83,1.91,1.91,0,0,0,1,1.68,10.06,10.06,0,0,0,3.34,1.11,28.49,28.49,0,0,1,4,1.06q5,1.83,5,6.33a6.15,6.15,0,0,1-2.76,5.21,12,12,0,0,1-7.13,2,12.49,12.49,0,0,1-5.25-1.05,8.82,8.82,0,0,1-3.6-2.89,6.74,6.74,0,0,1-1.31-4h6a3.29,3.29,0,0,0,1.24,2.57,5,5,0,0,0,3.09.89,4.54,4.54,0,0,0,2.73-.69A2.1,2.1,0,0,0,554.34,293.7Z"
            transform="translate(-27.57 -22.96)" />
    </g>
    <g id="comemora">
        <path
            d="M682.91,263.75a9.69,9.69,0,0,1-3.3,6.67,11.37,11.37,0,0,1-7.46,2.31,10.68,10.68,0,0,1-5.75-1.54,10.13,10.13,0,0,1-3.87-4.35,14.68,14.68,0,0,1-1.38-6.43v-3.58a14.88,14.88,0,0,1,1.36-6.52,10.06,10.06,0,0,1,3.93-4.39,11.16,11.16,0,0,1,5.89-1.55,10.88,10.88,0,0,1,7.42,2.39,9.77,9.77,0,0,1,3.16,6.62h-2.49q-.93-7-8.09-7a7.84,7.84,0,0,0-6.33,2.81c-1.58,1.87-2.36,4.46-2.36,7.76v3.38a11.72,11.72,0,0,0,2.3,7.62,7.55,7.55,0,0,0,6.21,2.85q3.87,0,5.84-1.76a8.19,8.19,0,0,0,2.43-5.25Z"
            transform="translate(-27.57 -22.96)" />
        <path
            d="M687,261.79a11.48,11.48,0,0,1,1.21-5.32,8.93,8.93,0,0,1,3.43-3.69,9.66,9.66,0,0,1,5-1.32,9.22,9.22,0,0,1,7,2.87,10.72,10.72,0,0,1,2.69,7.61v.48a11.58,11.58,0,0,1-1.22,5.35,8.74,8.74,0,0,1-3.42,3.67,9.79,9.79,0,0,1-5,1.29,9.19,9.19,0,0,1-7-2.87,10.66,10.66,0,0,1-2.7-7.61Zm2.4.63a9,9,0,0,0,2,6,7.09,7.09,0,0,0,10.56,0,9.2,9.2,0,0,0,2-6.22v-.44a10,10,0,0,0-.92-4.3,7.12,7.12,0,0,0-2.59-3,6.87,6.87,0,0,0-3.82-1.07,6.58,6.58,0,0,0-5.24,2.37,9.3,9.3,0,0,0-2,6.23Z"
            transform="translate(-27.57 -22.96)" />
        <path
            d="M713.57,251.84l.08,3.34a7.79,7.79,0,0,1,3-2.79,8.61,8.61,0,0,1,4-.93c3.43,0,5.6,1.33,6.53,4a7.85,7.85,0,0,1,3.11-2.94,9,9,0,0,1,4.29-1q7,0,7.13,7.21v13.68h-2.41V258.84a5.89,5.89,0,0,0-1.25-4.08,5.33,5.33,0,0,0-4-1.33,6.64,6.64,0,0,0-4.37,1.59,5.43,5.43,0,0,0-2,3.76v13.57h-2.41V258.67a4.64,4.64,0,0,0-5.3-5.24,6.3,6.3,0,0,0-3.9,1.23,7.09,7.09,0,0,0-2.4,3.63v14.06h-2.41V251.84Z"
            transform="translate(-27.57 -22.96)" />
        <path
            d="M756.23,272.73a9.84,9.84,0,0,1-5-1.29,9,9,0,0,1-3.49-3.59,10.71,10.71,0,0,1-1.24-5.17v-.81a11.52,11.52,0,0,1,1.21-5.33,9.24,9.24,0,0,1,3.39-3.72,8.62,8.62,0,0,1,4.69-1.36,8.07,8.07,0,0,1,6.28,2.55,10,10,0,0,1,2.32,7v1.27h-15.5v.43a8.26,8.26,0,0,0,2.12,5.81,6.9,6.9,0,0,0,5.33,2.32,8.25,8.25,0,0,0,3.4-.66,7.47,7.47,0,0,0,2.68-2.12l1.51,1.08A9,9,0,0,1,756.23,272.73Zm-.45-19.33a6.17,6.17,0,0,0-4.56,1.87,8.43,8.43,0,0,0-2.26,5h13v-.24a7.28,7.28,0,0,0-1.79-4.82A5.67,5.67,0,0,0,755.78,253.4Z"
            transform="translate(-27.57 -22.96)" />
        <path
            d="M771.24,251.84l.08,3.34a7.88,7.88,0,0,1,3-2.79,8.61,8.61,0,0,1,4-.93q5.14,0,6.52,4A7.94,7.94,0,0,1,788,252.5a9,9,0,0,1,4.29-1q7,0,7.13,7.21v13.68H797V258.84a5.89,5.89,0,0,0-1.25-4.08,5.33,5.33,0,0,0-4-1.33,6.66,6.66,0,0,0-4.38,1.59,5.46,5.46,0,0,0-2,3.76v13.57H783V258.67a4.64,4.64,0,0,0-5.3-5.24,6.28,6.28,0,0,0-3.9,1.23,7.17,7.17,0,0,0-2.41,3.63v14.06h-2.41V251.84Z"
            transform="translate(-27.57 -22.96)" />
        <path
            d="M804.17,261.79a11.48,11.48,0,0,1,1.21-5.32,9,9,0,0,1,3.43-3.69,9.66,9.66,0,0,1,5-1.32,9.2,9.2,0,0,1,7,2.87,10.72,10.72,0,0,1,2.69,7.61v.48a11.57,11.57,0,0,1-1.21,5.35,8.76,8.76,0,0,1-3.43,3.67,9.79,9.79,0,0,1-5,1.29,9.2,9.2,0,0,1-7-2.87,10.66,10.66,0,0,1-2.7-7.61Zm2.41.63a9,9,0,0,0,2,6,7.09,7.09,0,0,0,10.56,0,9.2,9.2,0,0,0,2-6.22v-.44a10,10,0,0,0-.92-4.3,7.12,7.12,0,0,0-2.59-3,6.85,6.85,0,0,0-3.82-1.07,6.59,6.59,0,0,0-5.24,2.37,9.3,9.3,0,0,0-2,6.23Z"
            transform="translate(-27.57 -22.96)" />
        <path
            d="M838.56,253.77a10.45,10.45,0,0,0-1.63-.13,6.07,6.07,0,0,0-3.8,1.19,6.4,6.4,0,0,0-2.22,3.44v14.08h-2.39V251.84h2.35l0,3.26a6.43,6.43,0,0,1,6.12-3.64,4.26,4.26,0,0,1,1.59.25Z"
            transform="translate(-27.57 -22.96)" />
        <path
            d="M855.26,272.35a10.31,10.31,0,0,1-.46-2.86,8.35,8.35,0,0,1-3.22,2.39,10.27,10.27,0,0,1-4.15.85,7.54,7.54,0,0,1-5.07-1.65,5.25,5.25,0,0,1-1.94-4.17,5.41,5.41,0,0,1,2.64-4.74,13.31,13.31,0,0,1,7.36-1.74h4.36V258.1a4.35,4.35,0,0,0-1.44-3.46,6.14,6.14,0,0,0-4.18-1.26,6.81,6.81,0,0,0-4.16,1.21,3.54,3.54,0,0,0-1.64,2.92l-2.41,0a5.2,5.2,0,0,1,2.41-4.24,9.66,9.66,0,0,1,5.92-1.79,8.76,8.76,0,0,1,5.73,1.72,6,6,0,0,1,2.16,4.78v9.71a11.43,11.43,0,0,0,.66,4.45v.23Zm-7.55-1.63a8.48,8.48,0,0,0,4.31-1.1,6.62,6.62,0,0,0,2.76-2.94v-4.51h-4.3a11.36,11.36,0,0,0-5.62,1.24,3.71,3.71,0,0,0-2,3.31,3.59,3.59,0,0,0,1.36,2.86A5.28,5.28,0,0,0,847.71,270.72Z"
            transform="translate(-27.57 -22.96)" />
        <path
            d="M871.6,270.81a6.58,6.58,0,0,0,4.21-1.33,4.65,4.65,0,0,0,1.84-3.46H880a6.15,6.15,0,0,1-1.24,3.42,7.71,7.71,0,0,1-3,2.42,9.66,9.66,0,0,1-4.07.87,8.6,8.6,0,0,1-6.77-2.81,10.89,10.89,0,0,1-2.5-7.54v-.68a12.25,12.25,0,0,1,1.12-5.37,8.42,8.42,0,0,1,3.22-3.6,9.37,9.37,0,0,1,4.91-1.27,8.66,8.66,0,0,1,5.89,2,7.11,7.11,0,0,1,2.48,5.29h-2.3a5.48,5.48,0,0,0-1.84-3.89,6.19,6.19,0,0,0-4.23-1.47,6.12,6.12,0,0,0-5.05,2.21,9.68,9.68,0,0,0-1.79,6.22v.66a9.48,9.48,0,0,0,1.79,6.13A6.19,6.19,0,0,0,871.6,270.81Zm.66,1.71-.24,1.21q3.32.4,3.32,3.24a3.14,3.14,0,0,1-1.59,2.77,7.93,7.93,0,0,1-4.32,1l-.14-1.48a6.05,6.05,0,0,0,2.92-.62,1.85,1.85,0,0,0,1.14-1.66,1.52,1.52,0,0,0-.87-1.51,8,8,0,0,0-2.66-.57l.58-2.41Z"
            transform="translate(-27.57 -22.96)" />
        <path
            d="M883.43,261.79a11.48,11.48,0,0,1,1.21-5.32,9,9,0,0,1,3.43-3.69,9.66,9.66,0,0,1,5-1.32,9.2,9.2,0,0,1,7,2.87,10.72,10.72,0,0,1,2.69,7.61v.48a11.57,11.57,0,0,1-1.21,5.35,8.76,8.76,0,0,1-3.43,3.67,9.79,9.79,0,0,1-5,1.29,9.2,9.2,0,0,1-7-2.87,10.66,10.66,0,0,1-2.7-7.61Zm2.41.63a9,9,0,0,0,2,6,7.09,7.09,0,0,0,10.56,0,9.2,9.2,0,0,0,2-6.22v-.44a10,10,0,0,0-.92-4.3,7.12,7.12,0,0,0-2.59-3,6.85,6.85,0,0,0-3.82-1.07,6.59,6.59,0,0,0-5.24,2.37,9.3,9.3,0,0,0-2,6.23Zm14.09-18.35a3.83,3.83,0,0,1-3.92,4,5.11,5.11,0,0,1-3-1,4.61,4.61,0,0,0-2.6-1.05,2.22,2.22,0,0,0-1.57.59,2.15,2.15,0,0,0-.64,1.65l-1.8-.06a3.94,3.94,0,0,1,1.09-2.86,4.13,4.13,0,0,1,4.47-.81,9.37,9.37,0,0,1,1.28.72c.41.26.81.5,1.22.72a3.11,3.11,0,0,0,1.43.32,2.2,2.2,0,0,0,1.58-.63,2.23,2.23,0,0,0,.65-1.68Z"
            transform="translate(-27.57 -22.96)" />
        <path
            d="M916.19,272.73a9.84,9.84,0,0,1-5-1.29,9,9,0,0,1-3.48-3.59,10.71,10.71,0,0,1-1.25-5.17v-.81a11.52,11.52,0,0,1,1.22-5.33,9.29,9.29,0,0,1,3.38-3.72,8.66,8.66,0,0,1,4.7-1.36A8.05,8.05,0,0,1,922,254a10,10,0,0,1,2.32,7v1.27h-15.5v.43a8.3,8.3,0,0,0,2.12,5.81,6.9,6.9,0,0,0,5.33,2.32,8.22,8.22,0,0,0,3.4-.66,7.38,7.38,0,0,0,2.68-2.12l1.51,1.08A9,9,0,0,1,916.19,272.73Zm-.44-19.33a6.18,6.18,0,0,0-4.57,1.87,8.43,8.43,0,0,0-2.26,5h13v-.24a7.33,7.33,0,0,0-1.78-4.82A5.69,5.69,0,0,0,915.75,253.4Z"
            transform="translate(-27.57 -22.96)" />
        <path
            d="M942,267.14a3.16,3.16,0,0,0-1.44-2.71,11.43,11.43,0,0,0-4.32-1.6,20.46,20.46,0,0,1-4.49-1.33,5.85,5.85,0,0,1-2.37-1.83,4.34,4.34,0,0,1-.77-2.62,4.77,4.77,0,0,1,2.15-4,9,9,0,0,1,5.5-1.59,9.31,9.31,0,0,1,5.83,1.7,5.34,5.34,0,0,1,2.2,4.43h-2.41a3.6,3.6,0,0,0-1.6-3,6.48,6.48,0,0,0-4-1.19,6.61,6.61,0,0,0-3.81,1,3,3,0,0,0-1.43,2.59,2.73,2.73,0,0,0,1.19,2.38,13.26,13.26,0,0,0,4.36,1.54,21.62,21.62,0,0,1,4.74,1.5,6,6,0,0,1,2.33,1.91,4.7,4.7,0,0,1,.77,2.71,4.82,4.82,0,0,1-2.22,4.15,9.86,9.86,0,0,1-5.79,1.56,10.15,10.15,0,0,1-6.16-1.74,5.23,5.23,0,0,1-2.36-4.38h2.41a3.93,3.93,0,0,0,1.78,3.1,7.65,7.65,0,0,0,4.33,1.1,7.08,7.08,0,0,0,4.05-1A3.08,3.08,0,0,0,942,267.14Z"
            transform="translate(-27.57 -22.96)" />
    </g>
    <g id="educacao">
        <path d="M918.08,159.67v11H927V157.91h2.72v16H904.51V158.08h2.72v12.54h8.13v-11Z"
            transform="translate(-27.57 -22.96)" />
        <path
            d="M920.21,155.38a11,11,0,0,1-6.94-2,7,7,0,0,1-.37-10.58h-9.78v-3.21h26.63v3l-2,.16A6.54,6.54,0,0,1,930.1,148a6.4,6.4,0,0,1-2.67,5.31,11.13,11.13,0,0,1-7,2.06Zm.37-3.21a8.29,8.29,0,0,0,5-1.32,4.27,4.27,0,0,0,1.81-3.64,4.69,4.69,0,0,0-2.74-4.46H916a4.72,4.72,0,0,0-2.65,4.42,4.26,4.26,0,0,0,1.82,3.68A9.14,9.14,0,0,0,920.58,152.17Z"
            transform="translate(-27.57 -22.96)" />
        <path
            d="M927.9,123a6.82,6.82,0,0,1,2.2,5.49,5.83,5.83,0,0,1-1.74,4.57,7.55,7.55,0,0,1-5.16,1.59H911v-3.21h12.12c2.84,0,4.27-1.16,4.27-3.47s-.92-4.08-2.74-4.89H911v-3.2h18.76v3Z"
            transform="translate(-27.57 -22.96)" />
        <path
            d="M927.48,107.47a4.62,4.62,0,0,0-1-3,3.63,3.63,0,0,0-2.6-1.42v-3a5.87,5.87,0,0,1,3.07,1.11,7.3,7.3,0,0,1,2.32,2.73,7.89,7.89,0,0,1,.87,3.62,7.71,7.71,0,0,1-2.56,6.09,10.18,10.18,0,0,1-7,2.27H920a11.35,11.35,0,0,1-4.88-1,7.65,7.65,0,0,1-3.31-2.89,8.22,8.22,0,0,1-1.18-4.44,7.52,7.52,0,0,1,1.89-5.25,6.8,6.8,0,0,1,4.91-2.23v3a4.43,4.43,0,0,0-3,1.37,4.31,4.31,0,0,0-1.17,3.07,4.47,4.47,0,0,0,1.76,3.78,8.23,8.23,0,0,0,5.09,1.35h.6a8.11,8.11,0,0,0,5-1.34A4.5,4.5,0,0,0,927.48,107.47Z"
            transform="translate(-27.57 -22.96)" />
        <path
            d="M929.75,84.82a6.42,6.42,0,0,1-2,.45,7.19,7.19,0,0,1,2.33,5.34,6.63,6.63,0,0,1-1.57,4.56,5.09,5.09,0,0,1-4,1.77A5.31,5.31,0,0,1,920,94.72a10.53,10.53,0,0,1-1.62-6.27V85.33H916.9a3.61,3.61,0,0,0-2.68,1,4.07,4.07,0,0,0-1,3,4.75,4.75,0,0,0,.86,2.88,2.57,2.57,0,0,0,2.1,1.16v3.22a4.44,4.44,0,0,1-2.71-1,6.88,6.88,0,0,1-2.07-2.71,9.08,9.08,0,0,1-.77-3.75A7.41,7.41,0,0,1,912.26,84a5.87,5.87,0,0,1,4.47-1.91h8.63a10.49,10.49,0,0,0,4.11-.66h.28Zm-2.44,5.33a5.62,5.62,0,0,0-.78-2.86,4.66,4.66,0,0,0-2-2h-3.85v2.51q0,5.89,3.45,5.9a2.94,2.94,0,0,0,2.36-1A3.89,3.89,0,0,0,927.31,90.15Z"
            transform="translate(-27.57 -22.96)" />
        <path
            d="M927.48,69.57a4.62,4.62,0,0,0-1-3,3.67,3.67,0,0,0-2.6-1.43v-3a5.87,5.87,0,0,1,3.07,1.11A7.3,7.3,0,0,1,929.23,66a7.86,7.86,0,0,1,.87,3.62,7.71,7.71,0,0,1-2.56,6.09,10.18,10.18,0,0,1-7,2.26H920a11.35,11.35,0,0,1-4.88-1A7.72,7.72,0,0,1,911.82,74a8.25,8.25,0,0,1-1.18-4.45,7.51,7.51,0,0,1,1.89-5.24,6.77,6.77,0,0,1,4.91-2.23v3a4.49,4.49,0,0,0-3,1.38,4.3,4.3,0,0,0-1.17,3.06A4.49,4.49,0,0,0,915,73.37a8.23,8.23,0,0,0,5.09,1.35h.6a8.11,8.11,0,0,0,5-1.34A4.5,4.5,0,0,0,927.48,69.57Zm2.43-.52.9.2a2.8,2.8,0,0,1,3-2.65A3.08,3.08,0,0,1,936.47,68a6.62,6.62,0,0,1,1,3.86l-1.86.13a4.17,4.17,0,0,0-.45-2.13,1.4,1.4,0,0,0-1.26-.75,1.25,1.25,0,0,0-1.13.55,5.55,5.55,0,0,0-.52,2.26l-2.32-.56Z"
            transform="translate(-27.57 -22.96)" />
        <path
            d="M903.67,44.7a4.34,4.34,0,0,1,3,1.07,3.48,3.48,0,0,1,1.16,2.66,4.11,4.11,0,0,1-.17,1.23A7.22,7.22,0,0,1,907,51a5.52,5.52,0,0,0-.65,1.22,2.72,2.72,0,0,0-.12.85,1.59,1.59,0,0,0,.55,1.22,2,2,0,0,0,1.39.5L908,57A4.54,4.54,0,0,1,905,55.91a3.54,3.54,0,0,1-1-3.75,8,8,0,0,1,.68-1.32,7.12,7.12,0,0,0,.66-1.27,3.1,3.1,0,0,0,.15-1,1.55,1.55,0,0,0-.58-1.24,2.08,2.08,0,0,0-1.37-.5Zm26.08,2.22a6.42,6.42,0,0,1-2,.45,7.16,7.16,0,0,1,2.33,5.34,6.59,6.59,0,0,1-1.57,4.55,5.07,5.07,0,0,1-4,1.78A5.29,5.29,0,0,1,920,56.81a10.48,10.48,0,0,1-1.62-6.26V47.42H916.9a3.62,3.62,0,0,0-2.68,1,4.07,4.07,0,0,0-1,3,4.7,4.7,0,0,0,.86,2.87,2.55,2.55,0,0,0,2.1,1.16v3.23a4.4,4.4,0,0,1-2.71-1,6.78,6.78,0,0,1-2.07-2.7,9.09,9.09,0,0,1-.77-3.76,7.43,7.43,0,0,1,1.62-5.08,5.86,5.86,0,0,1,4.47-1.9h8.63a10.49,10.49,0,0,0,4.11-.66h.28Zm-2.44,5.32a5.67,5.67,0,0,0-.78-2.86,4.78,4.78,0,0,0-2-2h-3.85v2.52q0,5.89,3.45,5.89a2.93,2.93,0,0,0,2.36-1A3.9,3.9,0,0,0,927.31,52.24Z"
            transform="translate(-27.57 -22.96)" />
        <path
            d="M920.2,40a11,11,0,0,1-5-1.09,8.05,8.05,0,0,1-3.4-3,8.2,8.2,0,0,1-1.2-4.42,7.89,7.89,0,0,1,2.66-6.19A10.19,10.19,0,0,1,920.35,23h.23A11.13,11.13,0,0,1,925.49,24a7.87,7.87,0,0,1,3.39,3,8.29,8.29,0,0,1,1.22,4.48,7.92,7.92,0,0,1-2.65,6.18,10.16,10.16,0,0,1-7,2.37Zm.38-3.23a8.06,8.06,0,0,0,5-1.44,4.65,4.65,0,0,0,1.89-3.88,4.6,4.6,0,0,0-1.92-3.88,8.74,8.74,0,0,0-5.36-1.44,8,8,0,0,0-5,1.46,4.66,4.66,0,0,0-1.92,3.89,4.61,4.61,0,0,0,1.89,3.84A8.71,8.71,0,0,0,920.58,36.81Z"
            transform="translate(-27.57 -22.96)" />
    </g>
    <g id="cultura">
        <path
            d="M461,164.88a12.53,12.53,0,0,1-4,8.37,13.1,13.1,0,0,1-9,2.95,12,12,0,0,1-9.71-4.35q-3.66-4.33-3.66-11.62v-3.29a19.46,19.46,0,0,1,1.71-8.39,12.67,12.67,0,0,1,4.82-5.55,13.5,13.5,0,0,1,7.24-1.94,12.42,12.42,0,0,1,8.74,3,12.75,12.75,0,0,1,3.82,8.42h-4.53q-.58-4.1-2.55-5.93a7.66,7.66,0,0,0-5.48-1.84,8.09,8.09,0,0,0-6.78,3.2q-2.44,3.2-2.45,9.09v3.32c0,3.71.77,6.67,2.32,8.86a7.5,7.5,0,0,0,6.51,3.29,8.73,8.73,0,0,0,5.77-1.7c1.33-1.14,2.22-3.11,2.66-5.93Z"
            transform="translate(-27.57 -22.96)" />
        <path
            d="M482.19,173.22c-1.69,2-4.18,3-7.45,3a7.92,7.92,0,0,1-6.19-2.36q-2.12-2.35-2.15-7V150.32h4.35v16.41c0,3.86,1.56,5.78,4.7,5.78,3.32,0,5.52-1.24,6.62-3.71V150.32h4.35v25.41h-4.14Z"
            transform="translate(-27.57 -22.96)" />
        <path d="M497.74,175.73h-4.35V139.65h4.35Z" transform="translate(-27.57 -22.96)" />
        <path
            d="M510.58,144.16v6.16h4.75v3.35h-4.75v15.78a3.56,3.56,0,0,0,.64,2.3,2.66,2.66,0,0,0,2.16.76,10.4,10.4,0,0,0,2.07-.28v3.5a12.4,12.4,0,0,1-3.34.47,5.43,5.43,0,0,1-4.39-1.76,7.55,7.55,0,0,1-1.48-5V153.67h-4.63v-3.35h4.63v-6.16Z"
            transform="translate(-27.57 -22.96)" />
        <path
            d="M536.09,173.22q-2.54,3-7.44,3a7.92,7.92,0,0,1-6.19-2.36q-2.13-2.35-2.15-7V150.32h4.34v16.41c0,3.86,1.57,5.78,4.7,5.78q5,0,6.62-3.71V150.32h4.35v25.41h-4.13Z"
            transform="translate(-27.57 -22.96)" />
        <path
            d="M559.21,154.22a13.07,13.07,0,0,0-2.14-.17c-2.85,0-4.79,1.21-5.8,3.64v18h-4.35V150.32h4.23l.07,2.93a6.75,6.75,0,0,1,6.06-3.4,4.47,4.47,0,0,1,1.93.33Z"
            transform="translate(-27.57 -22.96)" />
        <path
            d="M578,175.73a8.9,8.9,0,0,1-.61-2.68,9.69,9.69,0,0,1-7.24,3.15,9,9,0,0,1-6.16-2.13,6.85,6.85,0,0,1-2.41-5.39,7.18,7.18,0,0,1,3-6.16q3-2.21,8.49-2.2h4.23v-2a4.88,4.88,0,0,0-1.37-3.63,5.45,5.45,0,0,0-4-1.35,6.36,6.36,0,0,0-3.9,1.17,3.45,3.45,0,0,0-1.57,2.84h-4.37a6,6,0,0,1,1.35-3.67,9.16,9.16,0,0,1,3.66-2.81,12.32,12.32,0,0,1,5.09-1A10.07,10.07,0,0,1,579,152a7.92,7.92,0,0,1,2.58,6.05v11.7a14.35,14.35,0,0,0,.89,5.56v.38Zm-7.21-3.31a7.57,7.57,0,0,0,3.87-1.06,6.39,6.39,0,0,0,2.66-2.75V163.4h-3.41q-8,0-8,4.67a4,4,0,0,0,1.36,3.2A5.27,5.27,0,0,0,570.74,172.42Z"
            transform="translate(-27.57 -22.96)" />
    </g>
    <g id="emprego">
        <path d="M318.51,222.07H293.84v21.52h28.37v3.76H289.39V194.61H322v3.77H293.84V218.3h24.67Z"
            transform="translate(-27.57 -22.96)" />
        <path
            d="M334.52,208.16l.15,6.37a14.47,14.47,0,0,1,5.43-5.32,14.93,14.93,0,0,1,7.24-1.78q9.29,0,11.78,7.61a14.66,14.66,0,0,1,5.61-5.63,15.52,15.52,0,0,1,7.75-2q12.61,0,12.86,13.77v26.15H381V221.53c0-3.51-.78-6.1-2.27-7.79s-3.9-2.54-7.26-2.54a11.55,11.55,0,0,0-7.9,3,10.67,10.67,0,0,0-3.58,7.19v25.93h-4.35V221.2c0-3.36-.82-5.86-2.37-7.52s-4-2.48-7.19-2.48a10.94,10.94,0,0,0-7,2.34,13.69,13.69,0,0,0-4.35,6.93v26.88h-4.34V208.16Z"
            transform="translate(-27.57 -22.96)" />
        <path
            d="M427.83,228.15q0,9.16-4.05,14.55a13,13,0,0,1-10.87,5.38q-8,0-12.32-5.65v20h-4.31V208.16h4l.22,5.54q4.25-6.27,12.28-6.27a13,13,0,0,1,11,5.33q4,5.33,4,14.78Zm-4.34-.76q0-7.5-3.08-11.84a9.94,9.94,0,0,0-8.59-4.35,12,12,0,0,0-6.84,1.92,12.11,12.11,0,0,0-4.39,5.58v18.8a11.49,11.49,0,0,0,4.46,5.14,12.77,12.77,0,0,0,6.84,1.78,9.86,9.86,0,0,0,8.54-4.37Q423.49,235.68,423.49,227.39Z"
            transform="translate(-27.57 -22.96)" />
        <path
            d="M455.54,211.85a16,16,0,0,0-2.93-.25,10.61,10.61,0,0,0-6.86,2.26,12.41,12.41,0,0,0-4,6.58v26.91h-4.31V208.16h4.24l.07,6.23q3.45-7,11.05-7a7,7,0,0,1,2.86.48Z"
            transform="translate(-27.57 -22.96)" />
        <path
            d="M476.88,248.08a17,17,0,0,1-9-2.47,16.75,16.75,0,0,1-6.28-6.86,21.34,21.34,0,0,1-2.25-9.87v-1.56a23.08,23.08,0,0,1,2.19-10.18,17.45,17.45,0,0,1,6.11-7.12,15.08,15.08,0,0,1,8.47-2.59,14.15,14.15,0,0,1,11.32,4.88q4.19,4.86,4.19,13.31v2.43h-28v.83a16.45,16.45,0,0,0,3.82,11.1,12.17,12.17,0,0,0,9.62,4.44,14,14,0,0,0,6.14-1.27,13.55,13.55,0,0,0,4.84-4.06l2.71,2.07Q486,248.08,476.88,248.08Zm-.8-37a10.82,10.82,0,0,0-8.24,3.59,16.56,16.56,0,0,0-4.07,9.63h23.51v-.47a14.43,14.43,0,0,0-3.23-9.2A10,10,0,0,0,476.08,211.13Z"
            transform="translate(-27.57 -22.96)" />
        <path
            d="M498.29,227.39q0-9.19,4.07-14.58a13.17,13.17,0,0,1,11.07-5.38q8,0,12.17,6.38l.22-5.65h4.06v38.4q0,7.56-4.24,12T514.15,263a17.38,17.38,0,0,1-7.8-1.82,15.1,15.1,0,0,1-5.85-4.88l2.42-2.6q4.6,5.64,10.94,5.65c3.63,0,6.45-1.07,8.48-3.21s3.08-5.1,3.15-8.89v-4.93q-4.17,5.81-12.13,5.8a13.05,13.05,0,0,1-10.94-5.44q-4.14-5.43-4.13-14.67Zm4.38.76q0,7.5,3,11.83a9.71,9.71,0,0,0,8.47,4.33q8,0,11.34-7.17V218.92a12.29,12.29,0,0,0-4.38-5.74,11.79,11.79,0,0,0-6.88-2,9.85,9.85,0,0,0-8.52,4.29Q502.68,219.8,502.67,228.15Z"
            transform="translate(-27.57 -22.96)" />
        <path
            d="M538.79,227.18A23.08,23.08,0,0,1,541,217a16.45,16.45,0,0,1,15.27-9.57,16.1,16.1,0,0,1,12.67,5.49q4.86,5.49,4.86,14.55v.9a23.27,23.27,0,0,1-2.19,10.23,16.28,16.28,0,0,1-6.18,7,16.88,16.88,0,0,1-9.09,2.47,16.14,16.14,0,0,1-12.66-5.49q-4.87-5.49-4.87-14.54Zm4.34,1.19a17.83,17.83,0,0,0,3.64,11.54,12.32,12.32,0,0,0,19.06,0q3.63-4.51,3.64-11.9v-.83A20,20,0,0,0,567.8,219a13.4,13.4,0,0,0-4.67-5.77,11.91,11.91,0,0,0-6.88-2.05,11.58,11.58,0,0,0-9.46,4.54c-2.44,3-3.66,7-3.66,11.91Z"
            transform="translate(-27.57 -22.96)" />
    </g>
    <g id="workshop">
        <path
            d="M65.64,308.38l4.93-1-4.71-1.2-23.44-6.9v-2.42l23.44-6.82,4.76-1.18-5-1-23.22-5.75v-2.75l31.8,8.15v2.57l-24.87,7.21-3.15.81,3.15.78,24.87,7.39v2.57l-31.8,8.13v-2.75Z"
            transform="translate(-27.57 -22.96)" />
        <path
            d="M62.06,276.88a13.93,13.93,0,0,1-6.14-1.32,9.92,9.92,0,0,1-5.77-9.2,9.76,9.76,0,0,1,3.31-7.65,12.76,12.76,0,0,1,8.77-2.92h.55A14.07,14.07,0,0,1,69,257.11a9.89,9.89,0,0,1,4.22,3.72,10.21,10.21,0,0,1,1.49,5.48A9.73,9.73,0,0,1,71.35,274a12.72,12.72,0,0,1-8.77,2.93Zm.72-2.62a10.73,10.73,0,0,0,7-2.19,7.43,7.43,0,0,0,0-11.49,11.08,11.08,0,0,0-7.17-2.19h-.5a12,12,0,0,0-5,1,8,8,0,0,0-3.48,2.82,7.15,7.15,0,0,0-1.24,4.15,7,7,0,0,0,2.74,5.7,11.11,11.11,0,0,0,7.18,2.2Z"
            transform="translate(-27.57 -22.96)" />
        <path
            d="M52.82,239.47a10.06,10.06,0,0,0-.15,1.77A6.39,6.39,0,0,0,54,245.38a7.45,7.45,0,0,0,4,2.41H74.22v2.6H50.59v-2.55l3.76-.05a6.94,6.94,0,0,1-4.2-6.66,4.27,4.27,0,0,1,.29-1.72Z"
            transform="translate(-27.57 -22.96)" />
        <path d="M62.32,229.73l2.88,3h9v2.62H40.68v-2.62H62.14l-2.66-2.46-8.89-9v-3.29l10,10L74.22,217v3.13Z"
            transform="translate(-27.57 -22.96)" />
        <path
            d="M68.22,199.29a3.74,3.74,0,0,0-3.13,1.56,12.07,12.07,0,0,0-1.84,4.71,21.93,21.93,0,0,1-1.53,4.88A6.5,6.5,0,0,1,59.61,213a5.18,5.18,0,0,1-3,.85A5.61,5.61,0,0,1,52,211.52a9.41,9.41,0,0,1-1.83-6,9.75,9.75,0,0,1,2-6.35,6.28,6.28,0,0,1,5.1-2.39v2.62a4.24,4.24,0,0,0-3.45,1.74,7.81,7.81,0,0,0-.23,8.51,3.55,3.55,0,0,0,3,1.57,3.24,3.24,0,0,0,2.74-1.3A13.79,13.79,0,0,0,61,205.2,22,22,0,0,1,62.76,200,6.63,6.63,0,0,1,65,197.5a5.6,5.6,0,0,1,3.13-.83,5.66,5.66,0,0,1,4.78,2.41,10.34,10.34,0,0,1,1.79,6.3,10.62,10.62,0,0,1-2,6.7,6.15,6.15,0,0,1-5.06,2.56V212a4.56,4.56,0,0,0,3.58-1.93,7.93,7.93,0,0,0,1.27-4.71,7.42,7.42,0,0,0-1.2-4.41A3.6,3.6,0,0,0,68.22,199.29Z"
            transform="translate(-27.57 -22.96)" />
        <path
            d="M54.59,188.19a9.15,9.15,0,0,1-3.28-3.29,8.68,8.68,0,0,1-1.16-4.39c0-2.54.72-4.42,2.15-5.66S55.86,173,58.72,173h15.5v2.6H58.69A7.23,7.23,0,0,0,54,176.91a5.26,5.26,0,0,0-1.55,4.23,6.59,6.59,0,0,0,1.51,4.29,8.84,8.84,0,0,0,4.1,2.76H74.22v2.6H40.68v-2.6Z"
            transform="translate(-27.57 -22.96)" />
        <path
            d="M62.06,167.69a13.93,13.93,0,0,1-6.14-1.32,9.94,9.94,0,0,1-5.77-9.21,9.74,9.74,0,0,1,3.31-7.64,12.77,12.77,0,0,1,8.77-2.93h.55A14.07,14.07,0,0,1,69,147.91a9.89,9.89,0,0,1,4.22,3.72,10.25,10.25,0,0,1,1.49,5.49,9.71,9.71,0,0,1-3.31,7.63,12.72,12.72,0,0,1-8.77,2.94Zm.72-2.62a10.73,10.73,0,0,0,7-2.2,7.43,7.43,0,0,0,0-11.49,11.08,11.08,0,0,0-7.17-2.19h-.5a12,12,0,0,0-5,1A8,8,0,0,0,53.62,153a7.15,7.15,0,0,0-1.24,4.15,7,7,0,0,0,2.74,5.7,11.11,11.11,0,0,0,7.18,2.21Z"
            transform="translate(-27.57 -22.96)" />
        <path
            d="M62.65,122.2q5.52,0,8.77,2.44a7.8,7.8,0,0,1,3.24,6.55,8.75,8.75,0,0,1-3.41,7.43H83.31v2.6H50.59v-2.43l3.34-.13a8.38,8.38,0,0,1-3.78-7.4,7.84,7.84,0,0,1,3.22-6.65q3.21-2.42,8.91-2.41Zm-.46,2.62a12.18,12.18,0,0,0-7.14,1.85,6,6,0,0,0-2.62,5.18A7.25,7.25,0,0,0,53.58,136,7.33,7.33,0,0,0,57,138.62H68.28a6.89,6.89,0,0,0,3.1-2.69,7.68,7.68,0,0,0,1.07-4.13,5.92,5.92,0,0,0-2.63-5.14C68.07,125.43,65.52,124.82,62.19,124.82Z"
            transform="translate(-27.57 -22.96)" />
        <path
            d="M68.22,102.26a3.74,3.74,0,0,0-3.13,1.56,12.08,12.08,0,0,0-1.84,4.7,21.59,21.59,0,0,1-1.53,4.88A6.54,6.54,0,0,1,59.61,116a5.25,5.25,0,0,1-3,.84A5.62,5.62,0,0,1,52,114.49a9.44,9.44,0,0,1-1.83-6,9.72,9.72,0,0,1,2-6.34,6.25,6.25,0,0,1,5.1-2.39v2.62a4.25,4.25,0,0,0-3.45,1.73,7.82,7.82,0,0,0-.23,8.52,3.54,3.54,0,0,0,3,1.56,3.21,3.21,0,0,0,2.74-1.3A13.62,13.62,0,0,0,61,108.16,21.86,21.86,0,0,1,62.76,103a6.74,6.74,0,0,1,2.2-2.55,6.06,6.06,0,0,1,7.91,1.59,10.34,10.34,0,0,1,1.79,6.3,10.59,10.59,0,0,1-2,6.69,6.16,6.16,0,0,1-5.06,2.57V115a4.58,4.58,0,0,0,3.58-1.93,7.93,7.93,0,0,0,1.27-4.71,7.42,7.42,0,0,0-1.2-4.41A3.6,3.6,0,0,0,68.22,102.26Z"
            transform="translate(-27.57 -22.96)" />
    </g>
    <g id="info">
        <path d="M351.44,78.55h-2.92V45.91h2.92Z" transform="translate(-27.57 -22.96)" />
        <path
            d="M362.86,54.29l.1,4.15a9.69,9.69,0,0,1,8.38-4.6c2.75,0,4.8.74,6.15,2.2s2,3.66,2,6.59V78.55h-2.82V62.61a7.17,7.17,0,0,0-1.46-4.84q-1.44-1.59-4.6-1.59A7.52,7.52,0,0,0,366,57.73a9.14,9.14,0,0,0-3,4.21V78.55h-2.83V54.29Z"
            transform="translate(-27.57 -22.96)" />
        <path
            d="M388.91,78.55V56.49h-4.25v-2.2h4.25V51.36a7.7,7.7,0,0,1,2-5.72,7.59,7.59,0,0,1,5.59-2,11.67,11.67,0,0,1,3,.38l-.22,2.22a11.61,11.61,0,0,0-2.58-.27,4.8,4.8,0,0,0-3.66,1.39,5.49,5.49,0,0,0-1.31,3.92v3h6.13v2.2h-6.13V78.55Z"
            transform="translate(-27.57 -22.96)" />
        <path
            d="M401.4,66.06a13.59,13.59,0,0,1,1.44-6.3,10.62,10.62,0,0,1,4.06-4.36,11.41,11.41,0,0,1,6-1.56,10.88,10.88,0,0,1,8.31,3.4,12.66,12.66,0,0,1,3.19,9v.56a13.73,13.73,0,0,1-1.44,6.34,10.43,10.43,0,0,1-4.05,4.34,11.66,11.66,0,0,1-6,1.52,10.85,10.85,0,0,1-8.3-3.4,12.59,12.59,0,0,1-3.2-9Zm2.85.74a10.6,10.6,0,0,0,2.39,7.14,8.36,8.36,0,0,0,12.49,0,10.93,10.93,0,0,0,2.39-7.36v-.52A11.74,11.74,0,0,0,420.43,61a8.34,8.34,0,0,0-3.07-3.57,8.09,8.09,0,0,0-4.51-1.27,7.79,7.79,0,0,0-6.2,2.81,11,11,0,0,0-2.4,7.37Z"
            transform="translate(-27.57 -22.96)" />
        <path
            d="M442.09,56.58a11.87,11.87,0,0,0-1.93-.16,7.25,7.25,0,0,0-4.5,1.4A7.61,7.61,0,0,0,433,61.89V78.55h-2.83V54.29H433l.05,3.86a7.6,7.6,0,0,1,7.24-4.31,4.83,4.83,0,0,1,1.88.3Z"
            transform="translate(-27.57 -22.96)" />
        <path
            d="M449.16,54.29l.1,4a9.34,9.34,0,0,1,3.56-3.3,10.29,10.29,0,0,1,4.75-1.1q6.07,0,7.72,4.71A9.32,9.32,0,0,1,469,55.07a10.6,10.6,0,0,1,5.08-1.23q8.26,0,8.43,8.52V78.55h-2.85v-16a6.93,6.93,0,0,0-1.48-4.82c-1-1-2.56-1.57-4.76-1.57a7.81,7.81,0,0,0-5.18,1.87,6.49,6.49,0,0,0-2.35,4.45v16H463V62.36a6.45,6.45,0,0,0-1.56-4.65,6.42,6.42,0,0,0-4.71-1.53,7.47,7.47,0,0,0-4.61,1.44,8.51,8.51,0,0,0-2.85,4.3V78.55h-2.85V54.29Z"
            transform="translate(-27.57 -22.96)" />
        <path
            d="M505.9,78.55a11.84,11.84,0,0,1-.55-3.38A9.8,9.8,0,0,1,501.54,78a12.17,12.17,0,0,1-4.9,1,9,9,0,0,1-6-2,6.18,6.18,0,0,1-2.29-4.93,6.42,6.42,0,0,1,3.12-5.61q3.12-2.06,8.71-2.06h5.15V61.69a5.17,5.17,0,0,0-1.7-4.09,7.3,7.3,0,0,0-4.95-1.49,8.12,8.12,0,0,0-4.92,1.43A4.2,4.2,0,0,0,491.82,61L489,61a6.17,6.17,0,0,1,2.85-5,11.41,11.41,0,0,1,7-2.12,10.4,10.4,0,0,1,6.78,2,7.11,7.11,0,0,1,2.56,5.66V73a13.54,13.54,0,0,0,.78,5.27v.27ZM497,76.62a9.91,9.91,0,0,0,5.09-1.3,7.75,7.75,0,0,0,3.27-3.47V66.51h-5.08A13.32,13.32,0,0,0,493.6,68a4.36,4.36,0,0,0-2.4,3.91,4.24,4.24,0,0,0,1.6,3.39A6.25,6.25,0,0,0,497,76.62Z"
            transform="translate(-27.57 -22.96)" />
        <path
            d="M525.23,76.74a7.83,7.83,0,0,0,5-1.58,5.5,5.5,0,0,0,2.17-4.1h2.73a7.36,7.36,0,0,1-1.47,4A9.15,9.15,0,0,1,530,78a11.36,11.36,0,0,1-4.81,1,10.2,10.2,0,0,1-8-3.32q-3-3.32-3-8.92V66a14.35,14.35,0,0,1,1.33-6.34,9.81,9.81,0,0,1,3.81-4.26,10.91,10.91,0,0,1,5.81-1.51,10.3,10.3,0,0,1,7,2.38,8.51,8.51,0,0,1,2.93,6.26h-2.73a6.47,6.47,0,0,0-2.17-4.6,8.08,8.08,0,0,0-11,.87c-1.41,1.75-2.12,4.21-2.12,7.36v.78a11.2,11.2,0,0,0,2.12,7.25A7.33,7.33,0,0,0,525.23,76.74Zm.78,2-.28,1.44q3.91.47,3.92,3.83a3.74,3.74,0,0,1-1.88,3.28,9.38,9.38,0,0,1-5.1,1.21l-.17-1.75A7.12,7.12,0,0,0,526,86a2.2,2.2,0,0,0,1.35-2,1.82,1.82,0,0,0-1-1.8,9.77,9.77,0,0,0-3.14-.67l.68-2.85Z"
            transform="translate(-27.57 -22.96)" />
        <path
            d="M557,78.55a11.84,11.84,0,0,1-.55-3.38A9.87,9.87,0,0,1,552.65,78a12.22,12.22,0,0,1-4.91,1,8.92,8.92,0,0,1-6-2,6.18,6.18,0,0,1-2.29-4.93,6.42,6.42,0,0,1,3.12-5.61q3.12-2.06,8.7-2.06h5.16V61.69a5.17,5.17,0,0,0-1.7-4.09,7.3,7.3,0,0,0-5-1.49,8.12,8.12,0,0,0-4.92,1.43,4.21,4.21,0,0,0-2,3.46l-2.85,0a6.17,6.17,0,0,1,2.85-5,11.44,11.44,0,0,1,7-2.12,10.42,10.42,0,0,1,6.78,2,7.13,7.13,0,0,1,2.55,5.66V73a13.33,13.33,0,0,0,.79,5.27v.27Zm-8.93-1.93a9.94,9.94,0,0,0,5.09-1.3,7.81,7.81,0,0,0,3.27-3.47V66.51h-5.09A13.35,13.35,0,0,0,544.7,68a4.37,4.37,0,0,0-2.39,3.91,4.24,4.24,0,0,0,1.6,3.39A6.25,6.25,0,0,0,548.08,76.62Zm10.85-31.54a4.6,4.6,0,0,1-1.34,3.44,4.51,4.51,0,0,1-3.29,1.31,6,6,0,0,1-3.53-1.23,5.53,5.53,0,0,0-3.07-1.24,2.66,2.66,0,0,0-1.87.7,2.52,2.52,0,0,0-.75,1.95L543,49.94a4.68,4.68,0,0,1,1.29-3.39,4.45,4.45,0,0,1,3.34-1.34,4.61,4.61,0,0,1,1.95.38,14.87,14.87,0,0,1,1.52.85,16.42,16.42,0,0,0,1.43.86,3.64,3.64,0,0,0,1.7.38,2.59,2.59,0,0,0,1.86-.74,2.64,2.64,0,0,0,.78-2Z"
            transform="translate(-27.57 -22.96)" />
        <path
            d="M565.27,66.06a13.59,13.59,0,0,1,1.44-6.3,10.62,10.62,0,0,1,4.06-4.36,11.41,11.41,0,0,1,6-1.56,10.88,10.88,0,0,1,8.31,3.4,12.65,12.65,0,0,1,3.18,9v.56a13.73,13.73,0,0,1-1.44,6.34,10.34,10.34,0,0,1-4,4.34,11.7,11.7,0,0,1-6,1.52,10.86,10.86,0,0,1-8.3-3.4,12.63,12.63,0,0,1-3.19-9Zm2.85.74a10.6,10.6,0,0,0,2.39,7.14,8.36,8.36,0,0,0,12.49,0,10.93,10.93,0,0,0,2.39-7.36v-.52a11.74,11.74,0,0,0-1.1-5.09,8.39,8.39,0,0,0-3.06-3.57,8.11,8.11,0,0,0-4.51-1.27,7.78,7.78,0,0,0-6.2,2.81,11,11,0,0,0-2.4,7.37Z"
            transform="translate(-27.57 -22.96)" />
    </g>
    <g id="net">
        <path d="M688.77,175.73h-4.53L667,149.38v26.35h-4.53v-34.2H667L684.28,168V141.53h4.49Z"
            transform="translate(-27.57 -22.96)" />
        <path
            d="M706.64,176.2a11.1,11.1,0,0,1-8.4-3.39,12.62,12.62,0,0,1-3.24-9.08v-.8a15.28,15.28,0,0,1,1.44-6.75,11.25,11.25,0,0,1,4-4.65,10.16,10.16,0,0,1,5.62-1.68,9.54,9.54,0,0,1,7.71,3.26q2.75,3.27,2.75,9.35v1.81H699.34a9,9,0,0,0,2.2,6.07,6.9,6.9,0,0,0,5.34,2.31,7.56,7.56,0,0,0,3.9-.94,9.54,9.54,0,0,0,2.79-2.49l2.66,2.07Q713,176.2,706.64,176.2Zm-.54-22.78a5.77,5.77,0,0,0-4.41,1.91,9.32,9.32,0,0,0-2.21,5.37h12.73v-.33a8.25,8.25,0,0,0-1.78-5.13A5.46,5.46,0,0,0,706.1,153.42Z"
            transform="translate(-27.57 -22.96)" />
        <path
            d="M727.48,144.16v6.16h4.74v3.35h-4.74v15.78a3.57,3.57,0,0,0,.63,2.3,2.68,2.68,0,0,0,2.16.76,10.4,10.4,0,0,0,2.07-.28v3.5a12.69,12.69,0,0,1-3.34.47,5.43,5.43,0,0,1-4.39-1.76,7.61,7.61,0,0,1-1.48-5V153.67h-4.62v-3.35h4.62v-6.16Z"
            transform="translate(-27.57 -22.96)" />
        <path
            d="M759.8,169.74l4.88-19.42H769l-7.4,25.41h-3.52l-6.18-19.26-6,19.26h-3.53L735,150.32h4.32l5,19,5.92-19h3.5Z"
            transform="translate(-27.57 -22.96)" />
        <path
            d="M772.29,162.79a15,15,0,0,1,1.47-6.72,10.92,10.92,0,0,1,4.09-4.6,11.12,11.12,0,0,1,6-1.62,10.68,10.68,0,0,1,8.39,3.59q3.21,3.6,3.21,9.56v.31A15.06,15.06,0,0,1,794,170a10.7,10.7,0,0,1-4.07,4.59,11.2,11.2,0,0,1-6.07,1.65,10.71,10.71,0,0,1-8.37-3.59,13.77,13.77,0,0,1-3.21-9.52Zm4.37.52a10.9,10.9,0,0,0,2,6.78,6.65,6.65,0,0,0,10.51,0c1.3-1.73,2-4.16,2-7.27a10.88,10.88,0,0,0-2-6.78,6.61,6.61,0,0,0-10.47,0C777.32,157.68,776.66,160.13,776.66,163.31Z"
            transform="translate(-27.57 -22.96)" />
        <path
            d="M813.16,154.22a13,13,0,0,0-2.13-.17,5.73,5.73,0,0,0-5.81,3.64v18h-4.34V150.32h4.23l.07,2.93a6.75,6.75,0,0,1,6.06-3.4,4.42,4.42,0,0,1,1.92.33Z"
            transform="translate(-27.57 -22.96)" />
        <path d="M824.25,164l-2.73,2.84v8.93h-4.34V139.65h4.34v21.82l2.33-2.79,7.91-8.36h5.29l-9.89,10.61,11,14.8h-5.1Z"
            transform="translate(-27.57 -22.96)" />
    </g>
    <g id="empreendedorismo">
        <path d="M678.83,309.28H667.76v7h13.08v5.41H660.72V292.48h20.16v5.43H667.76v6.16h11.07Z"
            transform="translate(-27.57 -22.96)" />
        <path
            d="M689.78,300l.22,2.54a7.47,7.47,0,0,1,6.2-2.94q4.11,0,5.55,3.26a7.24,7.24,0,0,1,6.38-3.26q6.6,0,6.78,8v14.11h-6.78V308a4.19,4.19,0,0,0-.56-2.43,2.4,2.4,0,0,0-2.05-.76,3.2,3.2,0,0,0-3,1.78l0,.29v14.81h-6.77V308a4.28,4.28,0,0,0-.55-2.47,2.37,2.37,0,0,0-2.06-.76,3.23,3.23,0,0,0-3,1.78v15.1h-6.76V300Z"
            transform="translate(-27.57 -22.96)" />
        <path
            d="M738.91,311a13.08,13.08,0,0,1-2.28,8.07,7.28,7.28,0,0,1-6.14,3,6.26,6.26,0,0,1-4.92-2.19V330h-6.75V300h6.31l.2,2a6.27,6.27,0,0,1,5.12-2.4,7.34,7.34,0,0,1,6.23,2.95q2.24,3,2.23,8.14Zm-6.76-.42c0-3.86-1.12-5.78-3.37-5.78a3.2,3.2,0,0,0-3.21,1.72v8.55a3.29,3.29,0,0,0,3.25,1.8q3.23,0,3.33-5.57Z"
            transform="translate(-27.57 -22.96)" />
        <path
            d="M755,306.09l-2.22-.16c-2.13,0-3.49.67-4.1,2v13.73h-6.75V300h6.33l.22,2.78c1.14-2.12,2.72-3.18,4.76-3.18a6.56,6.56,0,0,1,1.88.24Z"
            transform="translate(-27.57 -22.96)" />
        <path
            d="M767.56,322.08a11.19,11.19,0,0,1-8.08-3,10.29,10.29,0,0,1-3.09-7.75v-.56a13.38,13.38,0,0,1,1.24-5.88,9,9,0,0,1,3.6-3.94,10.83,10.83,0,0,1,5.61-1.39,9.39,9.39,0,0,1,7.22,2.83c1.77,1.9,2.65,4.53,2.65,7.91V313H763.27a4.86,4.86,0,0,0,1.59,2.87,4.72,4.72,0,0,0,3.16,1,6.1,6.1,0,0,0,5-2.24l3.09,3.64a8.67,8.67,0,0,1-3.58,2.78A12.12,12.12,0,0,1,767.56,322.08Zm-.76-17.29c-2,0-3.15,1.31-3.53,3.93h6.82v-.52a3.37,3.37,0,0,0-.82-2.52A3.3,3.3,0,0,0,766.8,304.79Z"
            transform="translate(-27.57 -22.96)" />
        <path
            d="M789.92,322.08a11.17,11.17,0,0,1-8.08-3,10.29,10.29,0,0,1-3.09-7.75v-.56a13.24,13.24,0,0,1,1.24-5.88,9,9,0,0,1,3.6-3.94,10.83,10.83,0,0,1,5.61-1.39,9.39,9.39,0,0,1,7.22,2.83c1.76,1.9,2.65,4.53,2.65,7.91V313H785.63a4.86,4.86,0,0,0,1.59,2.87,4.72,4.72,0,0,0,3.16,1,6.11,6.11,0,0,0,5-2.24l3.09,3.64a8.67,8.67,0,0,1-3.58,2.78A12.12,12.12,0,0,1,789.92,322.08Zm-.76-17.29q-3,0-3.53,3.93h6.82v-.52a3.37,3.37,0,0,0-.82-2.52A3.3,3.3,0,0,0,789.16,304.79Z"
            transform="translate(-27.57 -22.96)" />
        <path
            d="M808,300l.22,2.54a7.37,7.37,0,0,1,6.2-2.94,6.19,6.19,0,0,1,5.06,2c1.12,1.35,1.69,3.38,1.73,6.1v14h-6.77V308a3.62,3.62,0,0,0-.67-2.42,3.07,3.07,0,0,0-2.4-.77,3.23,3.23,0,0,0-3,1.56v15.32h-6.76V300Z"
            transform="translate(-27.57 -22.96)" />
        <path
            d="M824.09,310.67q0-5.16,2.23-8.13a7.33,7.33,0,0,1,6.21-3,6.26,6.26,0,0,1,4.9,2.28v-11h6.77v30.8h-6.07l-.34-2.32a6.41,6.41,0,0,1-5.3,2.73,7.3,7.3,0,0,1-6.13-3C824.85,317.13,824.09,314.31,824.09,310.67Zm6.76.42q0,5.78,3.37,5.77a3.33,3.33,0,0,0,3.21-1.88v-8.27a3.24,3.24,0,0,0-3.17-1.92q-3.13,0-3.39,5Z"
            transform="translate(-27.57 -22.96)" />
        <path
            d="M858.54,322.08a11.17,11.17,0,0,1-8.08-3,10.29,10.29,0,0,1-3.09-7.75v-.56a13.24,13.24,0,0,1,1.24-5.88,9,9,0,0,1,3.6-3.94,10.81,10.81,0,0,1,5.61-1.39,9.4,9.4,0,0,1,7.22,2.83c1.76,1.9,2.65,4.53,2.65,7.91V313H854.25a4.86,4.86,0,0,0,1.59,2.87,4.72,4.72,0,0,0,3.16,1,6.11,6.11,0,0,0,5-2.24l3.08,3.64a8.57,8.57,0,0,1-3.57,2.78A12.12,12.12,0,0,1,858.54,322.08Zm-.76-17.29c-2,0-3.15,1.31-3.53,3.93h6.82v-.52a3.37,3.37,0,0,0-.82-2.52A3.3,3.3,0,0,0,857.78,304.79Z"
            transform="translate(-27.57 -22.96)" />
        <path
            d="M869.55,310.67q0-5.16,2.23-8.13a7.33,7.33,0,0,1,6.21-3,6.26,6.26,0,0,1,4.9,2.28v-11h6.77v30.8h-6.07l-.34-2.32a6.41,6.41,0,0,1-5.3,2.73,7.3,7.3,0,0,1-6.13-3C870.31,317.13,869.55,314.31,869.55,310.67Zm6.76.42q0,5.78,3.37,5.77a3.35,3.35,0,0,0,3.21-1.88v-8.27a3.25,3.25,0,0,0-3.17-1.92q-3.13,0-3.39,5Z"
            transform="translate(-27.57 -22.96)" />
        <path
            d="M892.65,310.63a12.71,12.71,0,0,1,1.27-5.79,9.06,9.06,0,0,1,3.62-3.9,10.94,10.94,0,0,1,5.56-1.36,10,10,0,0,1,7.68,3,11.61,11.61,0,0,1,2.81,8.22v.24a11.24,11.24,0,0,1-2.82,8.05,11.3,11.3,0,0,1-15.07.2,10.88,10.88,0,0,1-3-7.53Zm6.76.42a8.08,8.08,0,0,0,.94,4.41,3.16,3.16,0,0,0,2.79,1.4q3.61,0,3.69-5.55v-.68q0-5.83-3.73-5.84-3.39,0-3.67,5Z"
            transform="translate(-27.57 -22.96)" />
        <path
            d="M929.69,306.09l-2.23-.16c-2.12,0-3.49.67-4.09,2v13.73h-6.76V300H923l.22,2.78q1.71-3.18,4.75-3.18a6.63,6.63,0,0,1,1.89.24Z"
            transform="translate(-27.57 -22.96)" />
        <path
            d="M932.08,294.38a3,3,0,0,1,1-2.36,4.4,4.4,0,0,1,5.41,0,3,3,0,0,1,1.05,2.36,3,3,0,0,1-1.05,2.37,4.44,4.44,0,0,1-5.41,0A3,3,0,0,1,932.08,294.38Zm7.17,27.29h-6.77V300h6.77Z"
            transform="translate(-27.57 -22.96)" />
        <path
            d="M954.77,315.58a1.57,1.57,0,0,0-.9-1.39,14.25,14.25,0,0,0-3.43-1.08,15.53,15.53,0,0,1-4.17-1.47,7,7,0,0,1-2.5-2.22,5.25,5.25,0,0,1-.87-3,6,6,0,0,1,2.47-4.92,10.16,10.16,0,0,1,6.46-1.93,11.19,11.19,0,0,1,6.89,1.94,6.08,6.08,0,0,1,2.61,5.11h-6.78c0-1.73-.91-2.6-2.74-2.6a2.76,2.76,0,0,0-1.79.59,1.82,1.82,0,0,0-.72,1.47,1.69,1.69,0,0,0,.88,1.47,8.46,8.46,0,0,0,2.82.92,25.05,25.05,0,0,1,3.4.86c3.26,1.12,4.89,3.14,4.89,6a5.67,5.67,0,0,1-2.64,4.83,11.55,11.55,0,0,1-6.82,1.87,11.81,11.81,0,0,1-5-1,8.39,8.39,0,0,1-3.41-2.72,6.21,6.21,0,0,1-1.22-3.63h6.32a2.59,2.59,0,0,0,1,2.19,4.12,4.12,0,0,0,2.47.69,3.2,3.2,0,0,0,2.07-.56A1.79,1.79,0,0,0,954.77,315.58Z"
            transform="translate(-27.57 -22.96)" />
        <path
            d="M970.84,300l.22,2.54a7.45,7.45,0,0,1,6.19-2.94c2.74,0,4.6,1.09,5.56,3.26a7.22,7.22,0,0,1,6.37-3.26q6.6,0,6.78,8v14.11h-6.78V308a4.11,4.11,0,0,0-.56-2.43,2.37,2.37,0,0,0-2-.76,3.2,3.2,0,0,0-3,1.78l0,.29v14.81h-6.78V308a4.37,4.37,0,0,0-.54-2.47,2.37,2.37,0,0,0-2.06-.76,3.23,3.23,0,0,0-3,1.78v15.1H964.5V300Z"
            transform="translate(-27.57 -22.96)" />
        <path
            d="M999,310.63a12.84,12.84,0,0,1,1.26-5.79,9.14,9.14,0,0,1,3.63-3.9,10.94,10.94,0,0,1,5.56-1.36,10,10,0,0,1,7.68,3,11.61,11.61,0,0,1,2.81,8.22v.24a11.24,11.24,0,0,1-2.82,8.05,11.3,11.3,0,0,1-15.07.2,10.88,10.88,0,0,1-3-7.53Zm6.76.42a8.08,8.08,0,0,0,.94,4.41,3.16,3.16,0,0,0,2.79,1.4q3.6,0,3.69-5.55v-.68c0-3.89-1.25-5.84-3.73-5.84-2.26,0-3.49,1.68-3.67,5Z"
            transform="translate(-27.57 -22.96)" />
    </g>
    <g id="vida">
        <path
            d="M691.24,209.92a21,21,0,0,1-1.63,8.57,15,15,0,0,1-4.5,5.88l5.71,4.52-5.27,4.48-7.62-6.13a16.46,16.46,0,0,1-10.17-2,14.28,14.28,0,0,1-5.46-6,20.3,20.3,0,0,1-2-8.95v-1.88a21,21,0,0,1,1.91-9.19,14.16,14.16,0,0,1,5.45-6.13,16.19,16.19,0,0,1,16.14,0,14.39,14.39,0,0,1,5.48,6.1,20.33,20.33,0,0,1,2,9.06Zm-8.69-1.49c0-3.51-.59-6.19-1.76-8a6.08,6.08,0,0,0-10.13,0c-1.14,1.8-1.71,4.44-1.73,7.91v1.63c0,3.49.57,6.16,1.73,8a5.65,5.65,0,0,0,5.13,2.79,5.58,5.58,0,0,0,5-2.75q1.74-2.75,1.76-7.91Z"
            transform="translate(-27.57 -22.96)" />
        <path
            d="M710.89,224.05a8.45,8.45,0,0,1-7,3.33c-2.88,0-5.07-.83-6.55-2.51s-2.23-4.09-2.23-7.24v-17h8.2v17.1q0,3.38,3.28,3.38a4.28,4.28,0,0,0,4-2V200.58h8.24V226.9h-7.68Z"
            transform="translate(-27.57 -22.96)" />
        <path
            d="M738.14,226.9a9.49,9.49,0,0,1-.78-2.36,7.62,7.62,0,0,1-6.32,2.84,9.35,9.35,0,0,1-6.33-2.25,7.16,7.16,0,0,1-2.6-5.65,7.35,7.35,0,0,1,3.16-6.47c2.11-1.46,5.17-2.19,9.2-2.19H737v-1.4c0-2.42-1-3.64-3.14-3.64s-2.92,1-2.92,2.89h-8.2a7.34,7.34,0,0,1,3.25-6.2,13.62,13.62,0,0,1,8.28-2.38,12,12,0,0,1,8,2.46,8.56,8.56,0,0,1,3,6.74v11.65a12,12,0,0,0,1.12,5.55v.41ZM733,221.55a4.55,4.55,0,0,0,2.54-.66,4.15,4.15,0,0,0,1.45-1.48V215.2h-2.39q-4.27,0-4.28,3.84a2.31,2.31,0,0,0,.76,1.81A2.69,2.69,0,0,0,733,221.55Z"
            transform="translate(-27.57 -22.96)" />
        <path d="M758.4,226.9h-8.22V189.53h8.22Z" transform="translate(-27.57 -22.96)" />
        <path
            d="M763.39,193.79a3.64,3.64,0,0,1,1.27-2.87,5.36,5.36,0,0,1,6.56,0,3.88,3.88,0,0,1,0,5.74,5.36,5.36,0,0,1-6.56,0A3.64,3.64,0,0,1,763.39,193.79Zm8.71,33.11h-8.22V200.58h8.22Z"
            transform="translate(-27.57 -22.96)" />
        <path
            d="M776.12,213.54q0-6.24,2.69-9.85a8.91,8.91,0,0,1,7.55-3.6,7.54,7.54,0,0,1,5.93,2.77V189.53h8.22V226.9h-7.37l-.41-2.82a7.78,7.78,0,0,1-6.42,3.3,8.89,8.89,0,0,1-7.45-3.6Q776.12,220.18,776.12,213.54Zm8.19.51c0,4.67,1.37,7,4.09,7a4,4,0,0,0,3.89-2.29v-10a3.91,3.91,0,0,0-3.84-2.33q-3.8,0-4.11,6.13Z"
            transform="translate(-27.57 -22.96)" />
        <path
            d="M820,226.9a9.49,9.49,0,0,1-.78-2.36,7.6,7.6,0,0,1-6.32,2.84,9.36,9.36,0,0,1-6.33-2.25,7.16,7.16,0,0,1-2.6-5.65,7.35,7.35,0,0,1,3.16-6.47c2.11-1.46,5.17-2.19,9.2-2.19h2.53v-1.4c0-2.42-1.05-3.64-3.14-3.64s-2.92,1-2.92,2.89h-8.2a7.34,7.34,0,0,1,3.25-6.2,13.62,13.62,0,0,1,8.28-2.38,12,12,0,0,1,8,2.46,8.56,8.56,0,0,1,3,6.74v11.65a12,12,0,0,0,1.12,5.55v.41Zm-5.13-5.35a4.55,4.55,0,0,0,2.54-.66,4.15,4.15,0,0,0,1.45-1.48V215.2h-2.39q-4.28,0-4.28,3.84a2.31,2.31,0,0,0,.76,1.81A2.69,2.69,0,0,0,814.87,221.55Z"
            transform="translate(-27.57 -22.96)" />
        <path
            d="M830.58,213.54q0-6.24,2.7-9.85a8.9,8.9,0,0,1,7.54-3.6,7.56,7.56,0,0,1,5.94,2.77V189.53H855V226.9h-7.37l-.41-2.82a7.78,7.78,0,0,1-6.42,3.3,8.88,8.88,0,0,1-7.45-3.6Q830.59,220.18,830.58,213.54Zm8.2.51q0,7,4.09,7a4,4,0,0,0,3.89-2.29v-10a3.92,3.92,0,0,0-3.84-2.33q-3.79,0-4.11,6.13Z"
            transform="translate(-27.57 -22.96)" />
        <path
            d="M872.38,227.38a13.54,13.54,0,0,1-9.81-3.61,12.5,12.5,0,0,1-3.74-9.4v-.68a16.29,16.29,0,0,1,1.49-7.13,11,11,0,0,1,4.37-4.78,13.13,13.13,0,0,1,6.81-1.69,11.41,11.41,0,0,1,8.76,3.44q3.21,3.45,3.21,9.6v3.19h-16.3a5.93,5.93,0,0,0,1.92,3.48,5.74,5.74,0,0,0,3.85,1.26,7.39,7.39,0,0,0,6.08-2.72l3.74,4.42a10.38,10.38,0,0,1-4.34,3.37A14.58,14.58,0,0,1,872.38,227.38Zm-.93-21c-2.4,0-3.82,1.58-4.28,4.76h8.27v-.63a4.09,4.09,0,0,0-1-3.05A4,4,0,0,0,871.45,206.42Z"
            transform="translate(-27.57 -22.96)" />
        <path
            d="M898.14,213.54q0-6.24,2.7-9.85a8.88,8.88,0,0,1,7.54-3.6,7.57,7.57,0,0,1,5.94,2.77V189.53h8.22V226.9h-7.37l-.42-2.82a7.75,7.75,0,0,1-6.42,3.3,8.86,8.86,0,0,1-7.44-3.6Q898.15,220.18,898.14,213.54Zm8.2.51q0,7,4.08,7a4,4,0,0,0,3.9-2.29v-10a3.93,3.93,0,0,0-3.85-2.33q-3.79,0-4.11,6.13Z"
            transform="translate(-27.57 -22.96)" />
        <path
            d="M939.93,227.38a13.51,13.51,0,0,1-9.8-3.61,12.47,12.47,0,0,1-3.75-9.4v-.68a16.15,16.15,0,0,1,1.5-7.13,11,11,0,0,1,4.37-4.78,13.13,13.13,0,0,1,6.81-1.69,11.43,11.43,0,0,1,8.76,3.44Q951,207,951,213.13v3.19h-16.3a5.93,5.93,0,0,0,1.92,3.48,5.73,5.73,0,0,0,3.84,1.26,7.36,7.36,0,0,0,6.08-2.72l3.75,4.42a10.44,10.44,0,0,1-4.34,3.37A14.6,14.6,0,0,1,939.93,227.38Zm-.92-21c-2.4,0-3.83,1.58-4.28,4.76H943v-.63a4.06,4.06,0,0,0-1-3.05A4,4,0,0,0,939,206.42Z"
            transform="translate(-27.57 -22.96)" />
        <path d="M977.23,217.14l4.16-16.56H990l-8.58,26.32h-8.37l-8.59-26.32h8.66Z"
            transform="translate(-27.57 -22.96)" />
        <path
            d="M992.41,193.79a3.67,3.67,0,0,1,1.26-2.87,5.38,5.38,0,0,1,6.57,0,3.9,3.9,0,0,1,0,5.74,5.38,5.38,0,0,1-6.57,0A3.67,3.67,0,0,1,992.41,193.79Zm8.71,33.11h-8.23V200.58h8.23Z"
            transform="translate(-27.57 -22.96)" />
        <path
            d="M1005.13,213.54q0-6.24,2.7-9.85a8.88,8.88,0,0,1,7.54-3.6,7.57,7.57,0,0,1,5.94,2.77V189.53h8.22V226.9h-7.37l-.41-2.82a7.78,7.78,0,0,1-6.43,3.3,8.86,8.86,0,0,1-7.44-3.6Q1005.14,220.18,1005.13,213.54Zm8.2.51q0,7,4.09,7a4,4,0,0,0,3.89-2.29v-10a3.93,3.93,0,0,0-3.85-2.33q-3.8,0-4.11,6.13Z"
            transform="translate(-27.57 -22.96)" />
        <path
            d="M1049,226.9a8.73,8.73,0,0,1-.78-2.36,7.62,7.62,0,0,1-6.33,2.84,9.32,9.32,0,0,1-6.32-2.25,7.14,7.14,0,0,1-2.61-5.65,7.36,7.36,0,0,1,3.17-6.47c2.1-1.46,5.17-2.19,9.19-2.19h2.53v-1.4c0-2.42-1-3.64-3.14-3.64-1.94,0-2.91,1-2.91,2.89h-8.2a7.36,7.36,0,0,1,3.24-6.2,13.66,13.66,0,0,1,8.29-2.38,11.94,11.94,0,0,1,7.95,2.46,8.5,8.5,0,0,1,3,6.74v11.65a12.11,12.11,0,0,0,1.12,5.55v.41Zm-5.14-5.35a4.55,4.55,0,0,0,2.54-.66,4.07,4.07,0,0,0,1.45-1.48V215.2h-2.38c-2.86,0-4.28,1.28-4.28,3.84a2.34,2.34,0,0,0,.75,1.81A2.69,2.69,0,0,0,1043.88,221.55Z"
            transform="translate(-27.57 -22.96)" />
    </g>
    <g id="saude">
        <path
            d="M143.46,363.38a8.53,8.53,0,0,0-3.08-6.93q-3.07-2.55-11.26-4.86t-12-5a12.17,12.17,0,0,1-.38-19.91q5-3.78,12.73-3.78a21,21,0,0,1,9.4,2,15.29,15.29,0,0,1,6.43,5.65,14.74,14.74,0,0,1,2.29,8.07h-4.5a11.09,11.09,0,0,0-3.69-8.7q-3.69-3.29-9.93-3.29-6,0-9.63,2.71a8.43,8.43,0,0,0-3.59,7.05,8,8,0,0,0,3.23,6.57q3.23,2.53,10.32,4.48a48.88,48.88,0,0,1,10.76,4,15.37,15.37,0,0,1,5.51,5,12.45,12.45,0,0,1,1.84,6.84,11.92,11.92,0,0,1-5,10q-5,3.76-13.13,3.77a25.68,25.68,0,0,1-10.23-2,15.57,15.57,0,0,1-7.07-5.57,14.45,14.45,0,0,1-2.41-8.23h4.46a10.54,10.54,0,0,0,4.17,8.81q4.15,3.23,11.08,3.22,6.16,0,9.89-2.72A8.48,8.48,0,0,0,143.46,363.38Z"
            transform="translate(-27.57 -22.96)" />
        <path
            d="M181.28,376.35a20.57,20.57,0,0,1-.84-5.47,15,15,0,0,1-5.81,4.58,17.72,17.72,0,0,1-7.48,1.62,13.15,13.15,0,0,1-9.15-3.15,10.28,10.28,0,0,1-3.49-8,10.5,10.5,0,0,1,4.76-9.06q4.77-3.33,13.28-3.33h7.86v-4.46a8.58,8.58,0,0,0-2.59-6.61c-1.73-1.6-4.25-2.41-7.55-2.41a11.86,11.86,0,0,0-7.5,2.32,6.9,6.9,0,0,0-3,5.58l-4.35,0q0-4.67,4.35-8.09a16.75,16.75,0,0,1,10.68-3.43q6.56,0,10.35,3.28a11.78,11.78,0,0,1,3.89,9.15v18.55a23.18,23.18,0,0,0,1.19,8.51v.43Zm-13.62-3.11a14.55,14.55,0,0,0,7.77-2.1,12.4,12.4,0,0,0,5-5.62V356.9h-7.75q-6.49.08-10.15,2.37a7.12,7.12,0,0,0-3.65,6.32,7,7,0,0,0,2.44,5.47A9.21,9.21,0,0,0,167.66,373.24Z"
            transform="translate(-27.57 -22.96)" />
        <path
            d="M221.49,371.39q-3.92,5.69-12.5,5.69-6.27,0-9.53-3.64t-3.33-10.78v-25.5h4.31v25q0,11.19,9.06,11.19,9.41,0,11.91-7.79V337.16h4.35v39.19h-4.2Zm-5.76-50.68H221l-8.37,10.15-3.8,0Z"
            transform="translate(-27.57 -22.96)" />
        <path
            d="M235.29,356.39q0-9.12,4.07-14.54a13.13,13.13,0,0,1,11.07-5.42q7.94,0,12.1,6.27v-22h4.31v55.64h-4.06l-.18-5.21q-4.17,5.94-12.24,5.94a13.1,13.1,0,0,1-10.93-5.45q-4.14-5.46-4.14-14.73Zm4.38.76q0,7.5,3,11.83a9.71,9.71,0,0,0,8.47,4.33q8,0,11.38-7.06V347.84q-3.37-7.63-11.3-7.64a9.85,9.85,0,0,0-8.52,4.29Q239.67,348.8,239.67,357.15Z"
            transform="translate(-27.57 -22.96)" />
        <path
            d="M293.43,377.08a16.84,16.84,0,0,1-15.33-9.33,21.46,21.46,0,0,1-2.24-9.87v-1.56a23.08,23.08,0,0,1,2.19-10.18,17.5,17.5,0,0,1,6.1-7.12,15.13,15.13,0,0,1,8.48-2.59A14.15,14.15,0,0,1,304,341.31q4.19,4.86,4.18,13.31v2.43h-28v.83A16.4,16.4,0,0,0,284,369a12.15,12.15,0,0,0,9.62,4.44,14.07,14.07,0,0,0,6.14-1.27,13.6,13.6,0,0,0,4.83-4.06l2.72,2.07Q302.52,377.07,293.43,377.08Zm-.8-36.95a10.83,10.83,0,0,0-8.24,3.58,16.62,16.62,0,0,0-4.08,9.64h23.51v-.47a14.37,14.37,0,0,0-3.22-9.2A10,10,0,0,0,292.63,340.13Z"
            transform="translate(-27.57 -22.96)" />
    </g>
    <g id="talentos">
        <path d="M342.52,328.74h-9.16v23.43H331.1V328.74H322v-1.8h20.56Z" transform="translate(-27.57 -22.96)" />
        <path
            d="M356.78,352.17a9.29,9.29,0,0,1-.42-2.62,7.49,7.49,0,0,1-2.95,2.19,9.34,9.34,0,0,1-3.79.77A6.91,6.91,0,0,1,345,351a4.81,4.81,0,0,1-1.77-3.82,5,5,0,0,1,2.41-4.33,12.16,12.16,0,0,1,6.73-1.59h4v-2.13A4,4,0,0,0,355,336a5.69,5.69,0,0,0-3.83-1.15,6.22,6.22,0,0,0-3.8,1.11,3.25,3.25,0,0,0-1.5,2.67l-2.21,0a4.75,4.75,0,0,1,2.21-3.87,8.8,8.8,0,0,1,5.41-1.64,8,8,0,0,1,5.24,1.57,5.46,5.46,0,0,1,2,4.38v8.87a10.5,10.5,0,0,0,.61,4.07v.21Zm-6.9-1.49a7.73,7.73,0,0,0,3.94-1,6.08,6.08,0,0,0,2.52-2.68v-4.13h-3.93a10.33,10.33,0,0,0-5.14,1.14,3.38,3.38,0,0,0-1.85,3,3.27,3.27,0,0,0,1.24,2.62A4.85,4.85,0,0,0,349.88,350.68Z"
            transform="translate(-27.57 -22.96)" />
        <path d="M366.84,352.17h-2.2V325.55h2.2Z" transform="translate(-27.57 -22.96)" />
        <path
            d="M380.49,352.51a9.07,9.07,0,0,1-4.58-1.17,8.25,8.25,0,0,1-3.18-3.29,9.72,9.72,0,0,1-1.14-4.72v-.74a10.49,10.49,0,0,1,1.11-4.87,8.5,8.5,0,0,1,3.09-3.41,8,8,0,0,1,4.3-1.24,7.37,7.37,0,0,1,5.73,2.33,9.1,9.1,0,0,1,2.12,6.37v1.16H373.78v.4a7.56,7.56,0,0,0,1.93,5.31,6.31,6.31,0,0,0,4.88,2.12,7.6,7.6,0,0,0,3.11-.6,6.92,6.92,0,0,0,2.45-1.94l1.37,1A8.18,8.18,0,0,1,380.49,352.51Zm-.4-17.67a5.68,5.68,0,0,0-4.18,1.71,7.74,7.74,0,0,0-2.06,4.61h11.91v-.22a6.68,6.68,0,0,0-1.63-4.4A5.22,5.22,0,0,0,380.09,334.84Z"
            transform="translate(-27.57 -22.96)" />
        <path
            d="M394.31,333.42l.08,3.2a7.49,7.49,0,0,1,6.48-3.55,6.15,6.15,0,0,1,4.75,1.7,7.36,7.36,0,0,1,1.58,5.1v12.3H405V339.85a5.51,5.51,0,0,0-1.12-3.75,4.6,4.6,0,0,0-3.56-1.23,5.77,5.77,0,0,0-3.6,1.21,7,7,0,0,0-2.32,3.25v12.84h-2.19V333.42Z"
            transform="translate(-27.57 -22.96)" />
        <path
            d="M416.28,328.62v4.8h4.11v1.7h-4.11v12.5a3.73,3.73,0,0,0,.6,2.33,2.37,2.37,0,0,0,2,.76,15.4,15.4,0,0,0,1.78-.17l.09,1.68a7.41,7.41,0,0,1-2.35.29,4,4,0,0,1-3.28-1.23,5.59,5.59,0,0,1-1-3.65V335.12h-3.65v-1.7h3.65v-4.8Z"
            transform="translate(-27.57 -22.96)" />
        <path
            d="M423.37,342.52a10.49,10.49,0,0,1,1.11-4.87,8.05,8.05,0,0,1,3.14-3.37,8.74,8.74,0,0,1,4.59-1.21,8.4,8.4,0,0,1,6.43,2.63,9.76,9.76,0,0,1,2.46,6.95v.44A10.6,10.6,0,0,1,440,348a8.07,8.07,0,0,1-3.13,3.36,9,9,0,0,1-4.61,1.17,8.38,8.38,0,0,1-6.41-2.62,9.73,9.73,0,0,1-2.47-7Zm2.2.57a8.25,8.25,0,0,0,1.84,5.52,6.5,6.5,0,0,0,9.66,0,8.46,8.46,0,0,0,1.84-5.69v-.4a9.13,9.13,0,0,0-.84-3.94,6.42,6.42,0,0,0-2.37-2.76,6.33,6.33,0,0,0-3.49-1,6,6,0,0,0-4.79,2.17,8.51,8.51,0,0,0-1.85,5.7Z"
            transform="translate(-27.57 -22.96)" />
        <path
            d="M457.52,347.4a2.91,2.91,0,0,0-1.31-2.48,10.45,10.45,0,0,0-3.95-1.46,19.1,19.1,0,0,1-4.11-1.21,5.5,5.5,0,0,1-2.16-1.67,4,4,0,0,1-.71-2.4,4.39,4.39,0,0,1,2-3.66,8.22,8.22,0,0,1,5-1.45,8.52,8.52,0,0,1,5.33,1.55,4.89,4.89,0,0,1,2,4.05h-2.21a3.3,3.3,0,0,0-1.45-2.74,6.92,6.92,0,0,0-7.16-.18,2.76,2.76,0,0,0-1.32,2.36,2.51,2.51,0,0,0,1.1,2.18,12.1,12.1,0,0,0,4,1.41,19.82,19.82,0,0,1,4.33,1.37,5.63,5.63,0,0,1,2.14,1.75,4.33,4.33,0,0,1,.7,2.48,4.41,4.41,0,0,1-2,3.79,9,9,0,0,1-5.3,1.42,9.24,9.24,0,0,1-5.62-1.58,4.79,4.79,0,0,1-2.16-4h2.2a3.56,3.56,0,0,0,1.63,2.83,6.89,6.89,0,0,0,3.95,1,6.48,6.48,0,0,0,3.71-.95A2.82,2.82,0,0,0,457.52,347.4Z"
            transform="translate(-27.57 -22.96)" />
        <path d="M476.26,352.17h-2.2V325.55h2.2Z" transform="translate(-27.57 -22.96)" />
        <path
            d="M481,342.52a10.49,10.49,0,0,1,1.11-4.87,8.05,8.05,0,0,1,3.14-3.37,8.74,8.74,0,0,1,4.59-1.21,8.4,8.4,0,0,1,6.43,2.63,9.76,9.76,0,0,1,2.46,6.95v.44a10.6,10.6,0,0,1-1.11,4.89,8.07,8.07,0,0,1-3.13,3.36,9,9,0,0,1-4.61,1.17,8.38,8.38,0,0,1-6.41-2.62,9.73,9.73,0,0,1-2.47-7Zm2.2.57a8.25,8.25,0,0,0,1.84,5.52,6.5,6.5,0,0,0,9.66,0,8.46,8.46,0,0,0,1.84-5.69v-.4a9.13,9.13,0,0,0-.84-3.94,6.42,6.42,0,0,0-2.37-2.76,6.33,6.33,0,0,0-3.49-1,6,6,0,0,0-4.79,2.17,8.51,8.51,0,0,0-1.85,5.7Z"
            transform="translate(-27.57 -22.96)" />
        <path
            d="M510.62,350.76a6,6,0,0,0,3.85-1.22,4.24,4.24,0,0,0,1.68-3.16h2.11a5.65,5.65,0,0,1-1.14,3.13,7,7,0,0,1-2.78,2.21,8.84,8.84,0,0,1-3.72.79,7.87,7.87,0,0,1-6.19-2.56,10,10,0,0,1-2.29-6.9v-.62a11.21,11.21,0,0,1,1-4.9,7.64,7.64,0,0,1,2.95-3.3,8.52,8.52,0,0,1,4.48-1.16,7.9,7.9,0,0,1,5.39,1.84,6.56,6.56,0,0,1,2.27,4.83h-2.11a5,5,0,0,0-1.68-3.55,6.24,6.24,0,0,0-8.48.68,8.76,8.76,0,0,0-1.64,5.68v.61a8.56,8.56,0,0,0,1.64,5.59A5.64,5.64,0,0,0,510.62,350.76Z"
            transform="translate(-27.57 -22.96)" />
        <path
            d="M535.18,352.17a9.29,9.29,0,0,1-.42-2.62,7.57,7.57,0,0,1-3,2.19,9.34,9.34,0,0,1-3.79.77,6.91,6.91,0,0,1-4.63-1.5,4.81,4.81,0,0,1-1.77-3.82,5,5,0,0,1,2.41-4.33,12.16,12.16,0,0,1,6.73-1.59h4v-2.13a4,4,0,0,0-1.31-3.17,5.69,5.69,0,0,0-3.83-1.15,6.22,6.22,0,0,0-3.8,1.11,3.25,3.25,0,0,0-1.5,2.67l-2.21,0a4.75,4.75,0,0,1,2.21-3.87,8.8,8.8,0,0,1,5.41-1.64,8,8,0,0,1,5.24,1.57,5.46,5.46,0,0,1,2,4.38v8.87a10.5,10.5,0,0,0,.61,4.07v.21Zm-6.9-1.49a7.73,7.73,0,0,0,3.94-1,6.08,6.08,0,0,0,2.52-2.68v-4.13h-3.93a10.33,10.33,0,0,0-5.14,1.14,3.38,3.38,0,0,0-1.85,3,3.27,3.27,0,0,0,1.24,2.62A4.85,4.85,0,0,0,528.28,350.68Z"
            transform="translate(-27.57 -22.96)" />
        <path
            d="M542.65,328a1.34,1.34,0,0,1,.4-1,1.5,1.5,0,0,1,1.11-.4,1.53,1.53,0,0,1,1.11.4,1.4,1.4,0,0,1,0,2,1.57,1.57,0,0,1-1.11.39,1.53,1.53,0,0,1-1.11-.39A1.34,1.34,0,0,1,542.65,328Zm2.59,24.17H543V333.42h2.2Z"
            transform="translate(-27.57 -22.96)" />
        <path
            d="M563.1,347.4a2.92,2.92,0,0,0-1.32-2.48,10.45,10.45,0,0,0-3.95-1.46,18.81,18.81,0,0,1-4.1-1.21,5.47,5.47,0,0,1-2.17-1.67,4,4,0,0,1-.71-2.4,4.39,4.39,0,0,1,2-3.66,8.22,8.22,0,0,1,5-1.45,8.52,8.52,0,0,1,5.33,1.55,4.89,4.89,0,0,1,2,4.05H563a3.31,3.31,0,0,0-1.46-2.74,6.92,6.92,0,0,0-7.16-.18,2.75,2.75,0,0,0-1.31,2.36,2.5,2.5,0,0,0,1.09,2.18,12.1,12.1,0,0,0,4,1.41,19.82,19.82,0,0,1,4.33,1.37,5.55,5.55,0,0,1,2.14,1.75,4.26,4.26,0,0,1,.7,2.48,4.41,4.41,0,0,1-2,3.79,9,9,0,0,1-5.29,1.42,9.25,9.25,0,0,1-5.63-1.58,4.79,4.79,0,0,1-2.16-4h2.21a3.52,3.52,0,0,0,1.62,2.83,6.92,6.92,0,0,0,4,1,6.47,6.47,0,0,0,3.7-.95A2.81,2.81,0,0,0,563.1,347.4Z"
            transform="translate(-27.57 -22.96)" />
    </g>
</svg>